<svg id="Layer_1" data-name="Layer 1" xmlns="http://www.w3.org/2000/svg" xmlns:xlink="http://www.w3.org/1999/xlink" width="200" height="112" viewBox="0 0 200 112"><defs><style>.cls-1,.cls-10,.cls-11,.cls-4,.cls-6,.cls-7,.cls-9{fill:none;}.cls-2{clip-path:url(#clip-path);}.cls-3{fill:#0f2752;}.cls-3,.cls-5,.cls-8{fill-rule:evenodd;}.cls-10,.cls-4{stroke:#070836;}.cls-10,.cls-11,.cls-4,.cls-6,.cls-7,.cls-9{stroke-linecap:round;stroke-miterlimit:2.6131;}.cls-4,.cls-6{stroke-width:0.6448px;}.cls-5{fill:#fff;}.cls-11,.cls-6,.cls-7,.cls-9{stroke:#231f20;}.cls-7{stroke-width:0.6448px;}.cls-8{fill:#2478ff;}.cls-9{stroke-width:0.5761px;}.cls-10{stroke-width:0.6459px;}.cls-11{stroke-width:0.6436px;}</style><clipPath id="clip-path"><rect class="cls-1" x="26.6701" y="-5.4382" width="146.6599" height="136.8764"/></clipPath></defs><g class="cls-2"><path class="cls-3" d="M100.17,9.6609a24.0625,24.0625,0,0,1-4.5115-1.458,2.4167,2.4167,0,0,0-2.8615,2.1152,6.22,6.22,0,0,1-.7567,2.3892,41.7362,41.7362,0,0,0-.3337,5.68l-.7989-.6267a15.6341,15.6341,0,0,0-.1383-3.5645.7676.7676,0,0,0-.8635-.3282s.0034-1.7865.045-3.9015A4.1241,4.1241,0,0,1,91.0445,6.95s-.3937-.9792,1.2871-2.9374c1.42-1.6558,4.41-2.6116,7.8379-2.37,3.4277-.2411,6.4175.7147,7.838,2.3705,1.6808,1.9582,1.2872,2.9374,1.2872,2.9374a4.1243,4.1243,0,0,1,1.094,3.0162c.0415,2.115.0449,3.9015.0449,3.9015a.7674.7674,0,0,0-.8634.3282,15.6341,15.6341,0,0,0-.1383,3.5645l-.799.6267a41.7634,41.7634,0,0,0-.3335-5.68,6.2185,6.2185,0,0,1-.7569-2.3892,2.4166,2.4166,0,0,0-2.8614-2.1152A24.0659,24.0659,0,0,1,100.17,9.6609Z"/><path class="cls-4" d="M100.17,9.6609a24.0625,24.0625,0,0,1-4.5115-1.458,2.4167,2.4167,0,0,0-2.8615,2.1152,6.22,6.22,0,0,1-.7567,2.3892,41.7362,41.7362,0,0,0-.3337,5.68l-.7989-.6267a15.6341,15.6341,0,0,0-.1383-3.5645.7676.7676,0,0,0-.8635-.3282s.0034-1.7865.045-3.9015A4.1241,4.1241,0,0,1,91.0445,6.95s-.3937-.9792,1.2871-2.9374c1.42-1.6558,4.41-2.6116,7.8379-2.37,3.4277-.2411,6.4175.7147,7.838,2.3705,1.6808,1.9582,1.2872,2.9374,1.2872,2.9374a4.1243,4.1243,0,0,1,1.094,3.0162c.0415,2.115.0449,3.9015.0449,3.9015a.7674.7674,0,0,0-.8634.3282,15.6341,15.6341,0,0,0-.1383,3.5645l-.799.6267a41.7634,41.7634,0,0,0-.3335-5.68,6.2185,6.2185,0,0,1-.7569-2.3892,2.4166,2.4166,0,0,0-2.8614-2.1152A24.0659,24.0659,0,0,1,100.17,9.6609Z"/><path class="cls-5" d="M92.0407,24.1777c.05.8539.1023,1.877.1584,2.8995a11.3917,11.3917,0,0,1-.2053,1.6427c-.2594,1.0366-2.9947,3.4552-3.8876,3.9737a14.2033,14.2033,0,0,1-2.1885.95,15.3061,15.3061,0,0,1-2.5629-.1732c-.4607-.1727-4.895-1.4972-8.4661.3457A13.76,13.76,0,0,0,67.8048,42.34c-.9216,3.5132-.4609,5.8171-.576,7.372a12.4987,12.4987,0,0,1-.23,1.958,44.4788,44.4788,0,0,0-4.089,7.8324c-1.4974,3.9737-2.3037,7.9477-3.1676,9.6754s-2.3036,1.267-4.2619,6.3928a129.2117,129.2117,0,0,1-6.3927,14.168,45.5466,45.5466,0,0,1-3.257,4.9307c-.0891-.0315-.1292-.0443-.1292-.0443a12.8433,12.8433,0,0,1-1.34.3254,2.1156,2.1156,0,0,0-1.0457.4528c-.3756.2593-1.3628.8-1.3628.8s-2.4119.8908-2.9624,1.0629a17.1849,17.1849,0,0,0-3.1317,2.2713,9.1953,9.1953,0,0,1-2.7183,1.3763c-.6193.1722-1.8929.2066-2.03.482a2.4475,2.4475,0,0,0,.7225,2.1335,2.2647,2.2647,0,0,0,2.65.4819c1.3421-.585,2.4434-1.0669,2.4434-1.0669a18.2478,18.2478,0,0,1-.7572,2.7187c-.31.5852-2.3742,3.7509-2.9248,4.68s-2.1337,3.6132-2.237,4.5425.2756,1.1356,1.0669,1.2389,1.6862-.7911,2.0992-1.48,3.9575-6.16,3.9575-6.16-4.5426,8.087-4.68,8.9131-.172,1.5141,1.0325,1.5831,1.583-1.4111,1.9617-2.0993,3.992-6.9517,3.992-6.9517-3.82,7.1928-3.9231,8.0875.6194,1.273,1.48.9977,1.8671-2.03,2.099-2.5808,1.8871-3.7429,2.5833-5.0878v.2449c-.6025,1.51-2.1126,4.8256-1.4817,5.4279s1.5986-1.0274,2.2288-2.0548c.062-.1012.15-.2467.2581-.4259.7231-1.1676,2.813-4.67,3.6987-6.2046.1779-.2941.9983-1.6471,1.3415-2.1613.0672-.1006.1746-.2659.31-.4773.4658-.7.9977-1.516,1.4971-2.3652.2645-.45.5259-.9115.7718-1.3562.0872-.1547.1671-.2994.2369-.4305l.0261-.0492c.6632-1.22,1.1627-2.2139,1.2078-2.3041l0,0,.0016-.0034.0007-.0014,0-.0009,0-.0007a6.6622,6.6622,0,0,0,1.9-2.4188,7.0984,7.0984,0,0,0,.288-1.44s7.43-8.12,9.1-10.0786,5.1834-5.1257,5.9321-7.0838.9215-2.4765.9215-2.4765a3.9645,3.9645,0,0,0,1.2094-1.9007,9.7953,9.7953,0,0,0,.288-2.1308s2.1312-3.6285,3.2253-5.5292A19.8185,19.8185,0,0,0,77.02,63.4184a52.0707,52.0707,0,0,0,2.0159,6.0473c1.0367,2.3614,2.3613,3.5708,2.7645,6.45a41.7248,41.7248,0,0,1,.4606,9.1,38.9062,38.9062,0,0,1-.6909,5.2986c-.3457.9791-2.5913,5.3555-2.8216,9.8478s-2.7644,12.0947-3.6858,16.4715-1.3824,7.7609-1.3824,7.7609H99.0216s-.2307-3.3263-.2307-4.0748-.288-1.2668,0-2.0156A7.95,7.95,0,0,1,100,116.5187a7.95,7.95,0,0,1,1.2094,1.7855c.288.7488,0,1.267,0,2.0156s-.2307,4.0748-.2307,4.0748H126.32s-.4608-3.3838-1.3822-7.7609-3.4556-11.9792-3.6859-16.4715-2.4759-8.8687-2.8216-9.8478a38.9062,38.9062,0,0,1-.6909-5.2986,41.7306,41.7306,0,0,1,.46-9.1c.4032-2.88,1.7278-4.089,2.7645-6.45a52.08,52.08,0,0,0,2.016-6.0473,19.8185,19.8185,0,0,0,1.3821,2.7067c1.0941,1.9007,3.2253,5.5292,3.2253,5.5292a9.7986,9.7986,0,0,0,.2879,2.1308,3.9643,3.9643,0,0,0,1.2095,1.9007s.1728.5181.9214,2.4765,4.262,5.1257,5.9321,7.0838,9.1,10.0786,9.1,10.0786a7.0984,7.0984,0,0,0,.288,1.44,6.6611,6.6611,0,0,0,1.9,2.4188l0,.0007,0,.0009.0007.0014.0016.0034,0,0c.0452.09.5445,1.084,1.2077,2.3041l.0262.0492c.07.1311.15.2758.2369.4305.2458.4447.5072.9065.7718,1.3562.4993.8492,1.0312,1.6656,1.497,2.3652.1354.2114.2429.3767.31.4773.3432.5142,1.1637,1.8672,1.3415,2.1613.8858,1.5346,2.9758,5.037,3.6987,6.2046.108.1792.1961.3247.2581.4259.63,1.0274,1.598,2.6569,2.2289,2.0548s-.8793-3.9179-1.4818-5.4279v-.2449c.6962,1.3449,2.3513,4.5369,2.5833,5.0878s1.2387,2.3056,2.0991,2.5808,1.5829-.1032,1.48-.9977-3.9232-8.0875-3.9232-8.0875,3.6137,6.2634,3.9921,6.9517.7571,2.1682,1.9617,2.0993,1.17-.7572,1.0324-1.5831-4.68-8.9131-4.68-8.9131,3.5444,5.4715,3.9576,6.16,1.3077,1.5828,2.0992,1.48,1.17-.31,1.0669-1.2389-1.6862-3.6133-2.237-4.5425-2.6151-4.0949-2.9248-4.68a18.2478,18.2478,0,0,1-.7572-2.7187s1.1013.4819,2.4435,1.0669a2.2644,2.2644,0,0,0,2.65-.4819,2.4473,2.4473,0,0,0,.7226-2.1335c-.1374-.2754-1.4108-.31-2.03-.482a9.197,9.197,0,0,1-2.7184-1.3763,17.1843,17.1843,0,0,0-3.1316-2.2713c-.5506-.1721-2.9624-1.0629-2.9624-1.0629s-.9872-.5408-1.3628-.8A2.116,2.116,0,0,0,155.64,94.95a12.85,12.85,0,0,1-1.34-.3254s-.04.0128-.1291.0443a45.5466,45.5466,0,0,1-3.257-4.9307,129.2117,129.2117,0,0,1-6.3927-14.168c-1.9583-5.1258-3.3981-4.665-4.262-6.3928s-1.67-5.7017-3.1675-9.6754a44.4788,44.4788,0,0,0-4.089-7.8324,12.4987,12.4987,0,0,1-.23-1.958c-.1152-1.5549.3456-3.8588-.5761-7.372a13.7593,13.7593,0,0,0-7.0838-8.5237c-3.5711-1.8429-8.0054-.5184-8.4662-.3457a15.3033,15.3033,0,0,1-2.5627.1732,14.2017,14.2017,0,0,1-2.1887-.95c-.8928-.5185-3.6282-2.9371-3.8875-3.9737v0l.1132-2.0334.0963-.8562c.0446-1.0712.11-2.1162.11-2.1162.2787-.9226.6163-3.2518.6163-3.2518s1.3709-.5482,1.5667-1.2141c.403-1.37,1.23-3.3551.5914-4.9348a.76.76,0,0,0-1.371-.1175,15.7326,15.7326,0,0,0-.274,3.5645l-.8228.6267a48.2122,48.2122,0,0,0-.3335-5.68c-.2742-.9009-.7921-1.1745-.7533-2.232s-1.4158-2.7425-2.865-2.2724c-1.2962.42-3.2224,1.4989-4.5116,1.4693-1.2892.03-3.2152-1.049-4.5115-1.4693-1.4492-.47-2.9041,1.2147-2.8651,2.2724s-.479,1.3311-.7531,2.232a48.1976,48.1976,0,0,0-.3337,5.68l-.8227-.6267a15.722,15.722,0,0,0-.2741-3.5645.76.76,0,0,0-1.3709.1175c-.6391,1.58.1884,3.5647.5913,4.9348.1958.6659,1.5667,1.2141,1.5667,1.2141C91.55,21.5209,91.5223,23.2961,92.0407,24.1777Z"/><path class="cls-6" d="M92.0407,24.1777c.05.8539.1023,1.877.1584,2.8995a11.3917,11.3917,0,0,1-.2053,1.6427c-.2594,1.0366-2.9947,3.4552-3.8876,3.9737a14.2033,14.2033,0,0,1-2.1885.95,15.3061,15.3061,0,0,1-2.5629-.1732c-.4607-.1727-4.895-1.4972-8.4661.3457A13.76,13.76,0,0,0,67.8048,42.34c-.9216,3.5132-.4609,5.8171-.576,7.372a12.4987,12.4987,0,0,1-.23,1.958,44.4788,44.4788,0,0,0-4.089,7.8324c-1.4974,3.9737-2.3037,7.9477-3.1676,9.6754s-2.3036,1.267-4.2619,6.3928a129.2117,129.2117,0,0,1-6.3927,14.168,45.5466,45.5466,0,0,1-3.257,4.9307c-.0891-.0315-.1292-.0443-.1292-.0443a12.8433,12.8433,0,0,1-1.34.3254,2.1156,2.1156,0,0,0-1.0457.4528c-.3756.2593-1.3628.8-1.3628.8s-2.4119.8908-2.9624,1.0629a17.1849,17.1849,0,0,0-3.1317,2.2713,9.1953,9.1953,0,0,1-2.7183,1.3763c-.6193.1722-1.8929.2066-2.03.482a2.4475,2.4475,0,0,0,.7225,2.1335,2.2647,2.2647,0,0,0,2.65.4819c1.3421-.585,2.4434-1.0669,2.4434-1.0669a18.2478,18.2478,0,0,1-.7572,2.7187c-.31.5852-2.3742,3.7509-2.9248,4.68s-2.1337,3.6132-2.237,4.5425.2756,1.1356,1.0669,1.2389,1.6862-.7911,2.0992-1.48,3.9575-6.16,3.9575-6.16-4.5426,8.087-4.68,8.9131-.172,1.5141,1.0325,1.5831,1.583-1.4111,1.9617-2.0993,3.992-6.9517,3.992-6.9517-3.82,7.1928-3.9231,8.0875.6194,1.273,1.48.9977,1.8671-2.03,2.099-2.5808,1.8871-3.7429,2.5833-5.0878v.2449c-.6025,1.51-2.1126,4.8256-1.4817,5.4279s1.5986-1.0274,2.2288-2.0548c.062-.1012.15-.2467.2581-.4259.7231-1.1676,2.813-4.67,3.6987-6.2046.1779-.2941.9983-1.6471,1.3415-2.1613.0672-.1006.1746-.2659.31-.4773.4658-.7.9977-1.516,1.4971-2.3652.2645-.45.5259-.9115.7718-1.3562.0872-.1547.1671-.2994.2369-.4305l.0261-.0492c.6632-1.22,1.1627-2.2139,1.2078-2.3041l0,0,.0016-.0034.0007-.0014,0-.0009,0-.0007a6.6622,6.6622,0,0,0,1.9-2.4188,7.0984,7.0984,0,0,0,.288-1.44s7.43-8.12,9.1-10.0786,5.1834-5.1257,5.9321-7.0838.9215-2.4765.9215-2.4765a3.9645,3.9645,0,0,0,1.2094-1.9007,9.7953,9.7953,0,0,0,.288-2.1308s2.1312-3.6285,3.2253-5.5292A19.8185,19.8185,0,0,0,77.02,63.4184a52.0707,52.0707,0,0,0,2.0159,6.0473c1.0367,2.3614,2.3613,3.5708,2.7645,6.45a41.7248,41.7248,0,0,1,.4606,9.1,38.9062,38.9062,0,0,1-.6909,5.2986c-.3457.9791-2.5913,5.3555-2.8216,9.8478s-2.7644,12.0947-3.6858,16.4715-1.3824,7.7609-1.3824,7.7609H99.0216s-.2307-3.3263-.2307-4.0748-.288-1.2668,0-2.0156A7.95,7.95,0,0,1,100,116.5187a7.95,7.95,0,0,1,1.2094,1.7855c.288.7488,0,1.267,0,2.0156s-.2307,4.0748-.2307,4.0748H126.32s-.4608-3.3838-1.3822-7.7609-3.4556-11.9792-3.6859-16.4715-2.4759-8.8687-2.8216-9.8478a38.9062,38.9062,0,0,1-.6909-5.2986,41.7306,41.7306,0,0,1,.46-9.1c.4032-2.88,1.7278-4.089,2.7645-6.45a52.08,52.08,0,0,0,2.016-6.0473,19.8185,19.8185,0,0,0,1.3821,2.7067c1.0941,1.9007,3.2253,5.5292,3.2253,5.5292a9.7986,9.7986,0,0,0,.2879,2.1308,3.9643,3.9643,0,0,0,1.2095,1.9007s.1728.5181.9214,2.4765,4.262,5.1257,5.9321,7.0838,9.1,10.0786,9.1,10.0786a7.0984,7.0984,0,0,0,.288,1.44,6.6611,6.6611,0,0,0,1.9,2.4188l0,.0007,0,.0009.0007.0014.0016.0034,0,0c.0452.09.5445,1.084,1.2077,2.3041l.0262.0492c.07.1311.15.2758.2369.4305.2458.4447.5072.9065.7718,1.3562.4993.8492,1.0312,1.6656,1.497,2.3652.1354.2114.2429.3767.31.4773.3432.5142,1.1637,1.8672,1.3415,2.1613.8858,1.5346,2.9758,5.037,3.6987,6.2046.108.1792.1961.3247.2581.4259.63,1.0274,1.598,2.6569,2.2289,2.0548s-.8793-3.9179-1.4818-5.4279v-.2449c.6962,1.3449,2.3513,4.5369,2.5833,5.0878s1.2387,2.3056,2.0991,2.5808,1.5829-.1032,1.48-.9977-3.9232-8.0875-3.9232-8.0875,3.6137,6.2634,3.9921,6.9517.7571,2.1682,1.9617,2.0993,1.17-.7572,1.0324-1.5831-4.68-8.9131-4.68-8.9131,3.5444,5.4715,3.9576,6.16,1.3077,1.5828,2.0992,1.48,1.17-.31,1.0669-1.2389-1.6862-3.6133-2.237-4.5425-2.6151-4.0949-2.9248-4.68a18.2478,18.2478,0,0,1-.7572-2.7187s1.1013.4819,2.4435,1.0669a2.2644,2.2644,0,0,0,2.65-.4819,2.4473,2.4473,0,0,0,.7226-2.1335c-.1374-.2754-1.4108-.31-2.03-.482a9.197,9.197,0,0,1-2.7184-1.3763,17.1843,17.1843,0,0,0-3.1316-2.2713c-.5506-.1721-2.9624-1.0629-2.9624-1.0629s-.9872-.5408-1.3628-.8A2.116,2.116,0,0,0,155.64,94.95a12.85,12.85,0,0,1-1.34-.3254s-.04.0128-.1291.0443a45.5466,45.5466,0,0,1-3.257-4.9307,129.2117,129.2117,0,0,1-6.3927-14.168c-1.9583-5.1258-3.3981-4.665-4.262-6.3928s-1.67-5.7017-3.1675-9.6754a44.4788,44.4788,0,0,0-4.089-7.8324,12.4987,12.4987,0,0,1-.23-1.958c-.1152-1.5549.3456-3.8588-.5761-7.372a13.7593,13.7593,0,0,0-7.0838-8.5237c-3.5711-1.8429-8.0054-.5184-8.4662-.3457a15.3033,15.3033,0,0,1-2.5627.1732,14.2017,14.2017,0,0,1-2.1887-.95c-.8928-.5185-3.6282-2.9371-3.8875-3.9737v0l.1132-2.0334.0963-.8562c.0446-1.0712.11-2.1162.11-2.1162.2787-.9226.6163-3.2518.6163-3.2518s1.3709-.5482,1.5667-1.2141c.403-1.37,1.23-3.3551.5914-4.9348a.76.76,0,0,0-1.371-.1175,15.7326,15.7326,0,0,0-.274,3.5645l-.8228.6267a48.2122,48.2122,0,0,0-.3335-5.68c-.2742-.9009-.7921-1.1745-.7533-2.232s-1.4158-2.7425-2.865-2.2724c-1.2962.42-3.2224,1.4989-4.5116,1.4693-1.2892.03-3.2152-1.049-4.5115-1.4693-1.4492-.47-2.9041,1.2147-2.8651,2.2724s-.479,1.3311-.7531,2.232a48.1976,48.1976,0,0,0-.3337,5.68l-.8227-.6267a15.722,15.722,0,0,0-.2741-3.5645.76.76,0,0,0-1.3709.1175c-.6391,1.58.1884,3.5647.5913,4.9348.1958.6659,1.5667,1.2141,1.5667,1.2141C91.55,21.5209,91.5223,23.2961,92.0407,24.1777Z"/><path class="cls-6" d="M76.2148,42.8573a11.8074,11.8074,0,0,0-3.9162,3.686"/><path class="cls-6" d="M74.9135,43.734A31.0631,31.0631,0,0,1,76.7909,49.48"/><path class="cls-6" d="M78.2884,54.5238s1.67,3.5131,3.801,4.2044,9.8484.115,12.44-.9217a6.3431,6.3431,0,0,0,3.9737-4.3195"/><path class="cls-6" d="M77.02,63.4184s-1.0919-5.1561-.7464-7.5175.7487-4.2619.7487-4.2619"/><path class="cls-6" d="M81.3556,74.0581s.9657,1.7121,1.0809.618"/><path class="cls-6" d="M81.9757,71.7966a38.9813,38.9813,0,0,1-1.3823-6.6232c0-1.8431-.0575-5.0684-.0575-5.0684"/><path class="cls-6" d="M60.5588,66.9648a6.396,6.396,0,0,0,.4539,3.0459"/><path class="cls-6" d="M63.1435,71.3352a35.5184,35.5184,0,0,0,4.4346,0,5.0324,5.0324,0,0,0,2.419-.9212"/><path class="cls-6" d="M66.9984,51.67s2.8259-1.7592,3.1714-2.6231"/><path class="cls-6" d="M72.8766,51.8114A19.4526,19.4526,0,0,1,74.95,58.3768c.1727,2.995-1.21,6.45-1.44,7.1992"/><path class="cls-6" d="M50.88,86.2566s-.3488,1.09,1.4366-.1772"/><path class="cls-6" d="M54.678,84.2365s5.5864-3.4558,7.43-6.5658,1.67-5.068,1.67-5.068"/><path class="cls-6" d="M45.8043,94.6915a11.1454,11.1454,0,0,1,3.4037,1.6972"/><path class="cls-6" d="M52.7732,99.1835a12.1553,12.1553,0,0,0-1.9808-1.5568"/><path class="cls-6" d="M54.9617,95.3247a7.3067,7.3067,0,0,0-1.6061,1.0059"/><path class="cls-6" d="M99.9952,116.0274a9.1843,9.1843,0,0,1-3.5023-3.34c-1.21-2.1884-3.7436-6.2777-4.953-8.7541s-3.7438-6.22-4.8379-6.9688"/><path class="cls-6" d="M81.0255,91.6117s2.2787,2.07,2.6242,2.5308"/><path class="cls-6" d="M91.1373,111.3047s-5.7592,8.4412-5.7592,13.09"/><path class="cls-6" d="M84.8027,98.864s.1153,2.0733.0576,4.8378-2.7645,5.7018-3.11,6.22"/><path class="cls-7" d="M98.6826,65.4892c-.1151.4894-.7488.72-1.2383.7486s-6.7671,2.1022-7.2855,2.275-.9214.173-.9214-.7487.23-4.1465.23-5.1833,1.0943-2.2462,2.0156-2.9373,5.1834-1.6124,5.8169-1.7277,1.44.979,1.555,1.0942a9.701,9.701,0,0,1,.438,2.9724A10.5954,10.5954,0,0,1,98.6826,65.4892Z"/><path class="cls-7" d="M99.0285,74.1567c.0074.7014-.4321.4031-1.3247.4608s-5.6152.7776-6.364.72-1.3826-1.2092-1.3826-1.8428a20.7655,20.7655,0,0,1,.2594-3.0525,3.1741,3.1741,0,0,1,1.123-1.5261,43.8653,43.8653,0,0,1,6.7672-1.4974c.432.0864,1.3942,1.18,1.3942,1.18a8.8681,8.8681,0,0,1,.44,2.5282A8.5147,8.5147,0,0,1,99.0285,74.1567Z"/><path class="cls-6" d="M91.6,76.5177s-1.382.173-1.44,1.0367a27.5863,27.5863,0,0,0,.2878,4.4923c.1729.6336,1.6129,1.3247,2.3039,1.4974a11.5337,11.5337,0,0,0,4.4345-.0576A5.6238,5.6238,0,0,0,98.7413,82.45"/><path class="cls-7" d="M92.55,76.1435c.288-.029,4.2332-.49,5.097-.4032A1.974,1.974,0,0,1,99.1154,76.95a9.72,9.72,0,0,1,.2494,3.1046A9.1959,9.1959,0,0,1,98.741,82.45"/><path class="cls-6" d="M92.32,84.9549a2.4366,2.4366,0,0,0-1.3823,1.44c-.23.9791,0,2.4764.2879,4.78"/><path class="cls-6" d="M93.7892,84.7529s4.4346.0289,4.8952.1729,1.01,2.1591,1.01,2.1591"/><path class="cls-8" d="M86.5041,61.7161s.72,0,.72,1.0655a6.6915,6.6915,0,0,1-.8351,3.254c-.4032.3742-1.9006.4033-3.0812.23s-1.8143-.4608-1.9006-1.0655.8639-.3743,1.7278-1.0367,1.0077-1.2384,1.7565-1.7566a4.8768,4.8768,0,0,1,1.6127-.6911"/><path class="cls-8" d="M82.0693,68.9441s.4609-.3457,1.0656-.8928a6.4443,6.4443,0,0,1,2.9948-.7776,2.01,2.01,0,0,1,1.4111,1.8431c.0287.979-.2591,2.4765-.95,2.534a7.2759,7.2759,0,0,1-3.1964-.9214c-.95-.5472-1.4974-.8351-1.3248-1.7853"/><path class="cls-8" d="M82.7606,72.2265s2.7645.9791,3.542,1.3247.6335,2.16.1441,3.1389-1.21,1.1232-2.16.3744A8.3487,8.3487,0,0,1,82.3,73.724c-.1441-.5759-.1441-2.3037.4606-1.4975"/><path class="cls-8" d="M83.308,78.3026c.2014.0287,2.5054,1.8142,3.3116,2.3613a2.0419,2.0419,0,0,1,.7486,2.3036c-.2591.6913-1.67.72-2.39.23s-1.67-.8062-1.7855-1.4974-.6335-4.3482.1153-3.3979"/><path class="cls-8" d="M83.9411,84.9831a28.2029,28.2029,0,0,1,4.2044,3.7434c1.1518,1.4974,1.2671,5.3563.8639,6.9112s-1.0366.9788-1.9.0575a45.5889,45.5889,0,0,0-3.9164-3.2827c-.7488-.5761-1.2958-.5759-1.0655-1.0367a2.6249,2.6249,0,0,0,.5184-1.3536c.0287-.6909-.0576-1.2382.0287-2.4477s.2592-3.11,1.267-2.5914"/><path class="cls-8" d="M98.4258,86.0484s-5.356-.5761-5.932.23-.9213,1.0366-.6335,2.9947.9214,7.1991,1.3821,9.215,3.2829,10.0787,3.686,10.9426,1.3246,1.6123,1.555-1.44.6624-13.4192.72-14.6285-.3742-6.0471-.4032-6.508a1.4033,1.4033,0,0,0-.3745-.8062"/><path class="cls-8" d="M98.57,77.3227s-.5184-1.0943-1.0942-1.1807a23.6943,23.6943,0,0,0-5.097.6336c-.8063.3167-1.1518.144-1.3535.8352a14.0819,14.0819,0,0,0,0,4.1178A2.8994,2.8994,0,0,0,93.07,82.88a11.11,11.11,0,0,0,3.3692.2592,3.7764,3.7764,0,0,0,2.0733-1.152,15.8327,15.8327,0,0,0,.0576-4.6649"/><path class="cls-8" d="M98.7429,73.3489a33.2974,33.2974,0,0,0-.1151-4.4347,2.0035,2.0035,0,0,0-1.1806-.7776c-.4321-.0575-5.6731,1.0654-5.9323,1.411a3.7472,3.7472,0,0,0-.7486,1.7568,6.6977,6.6977,0,0,0-.1154,2.5052,1.1323,1.1323,0,0,0,.85.864,23.2316,23.2316,0,0,0,3.8011-.4464c.59-.144,2.2031-.1295,2.6638-.3166s.7344-.1441.7775-.5617"/><path class="cls-8" d="M98.7868,59.958s-.72-1.0077-1.2671-1.123a22.0708,22.0708,0,0,0-5.2985,1.2384c-.5471.3454-1.8718,1.5838-1.9581,2.3613a43.5035,43.5035,0,0,0-.2881,4.6072c.0864.6336.3456.8065,1.0944.3457s6.45-1.8143,6.8247-1.9871a1.7418,1.7418,0,0,0,.6912-1.123c.0575-.3167.2015-4.32.2015-4.32"/><path class="cls-6" d="M80.5934,65.1734a6.3,6.3,0,0,0,4.5737,1.84"/><path class="cls-6" d="M86.3765,61.052s1.1807-.1151,1.4687.144.23,2.6206-.0864,3.9163a1.9873,1.9873,0,0,1-1.3823,1.5263"/><path class="cls-6" d="M87.5,67.4161a3.6707,3.6707,0,0,1,1.0367,1.9582,9.2866,9.2866,0,0,1-.9216,3.4555c-.2591.2593-3.6858-.72-3.8874-.8063"/><path class="cls-6" d="M87.5,73.6361a16.363,16.363,0,0,1,.4606,2.1022,5.0625,5.0625,0,0,1-.8063,2.6492c-.2878.49-1.8716-.0575-1.8716-.0575"/><path class="cls-6" d="M86.6069,79.3091s1.4688.6337,1.7567,1.6126A4.7608,4.7608,0,0,1,88.22,83.859c-.3167.691-.7776.9792-1.2958.7775"/><path class="cls-6" d="M84.3032,84.2334s4.8665,3.0525,5.3273,5.5289"/><path class="cls-6" d="M84.3621,62.06a12.7022,12.7022,0,0,1,5.1258-3.0813"/><path class="cls-6" d="M98.243,38.965a3.4223,3.4223,0,0,0-1.9-1.6127c-1.5551-.6909-3.7437-.5761-6.3354-.6336S84.0751,34.3,84.0751,34.3"/><path class="cls-6" d="M92.1549,27.61s2.2232,7.6806,4.4436,9.8633"/><line class="cls-6" x1="99.9909" y1="40.4318" x2="100.0003" y2="40.8946"/><path class="cls-6" d="M43.9862,99.7179a9.0956,9.0956,0,0,1-3.1374,2.2621,11.4759,11.4759,0,0,1-3.2692.5508"/><path class="cls-6" d="M45.4256,100.2248a11.8553,11.8553,0,0,0-.7689,4.37,16.1855,16.1855,0,0,0,.29,2.8571"/><path class="cls-6" d="M36.4907,106.3164c.6953,1.6924,4.8986,4.6014,7.81,5.1729"/><line class="cls-6" x1="34.7929" y1="110.0943" x2="35.9598" y2="110.8187"/><line class="cls-6" x1="37.193" y1="111.8872" x2="38.3599" y2="112.6114"/><line class="cls-6" x1="42.8604" y1="112.2871" x2="44.0273" y2="113.0114"/><path class="cls-6" d="M123.7858,42.8573a11.8064,11.8064,0,0,1,3.9162,3.686"/><path class="cls-6" d="M125.087,43.734A31.0582,31.0582,0,0,0,123.21,49.48"/><path class="cls-6" d="M121.7122,54.5238s-1.67,3.5131-3.801,4.2044-9.8484.115-12.44-.9217a6.3438,6.3438,0,0,1-3.9738-4.3195"/><path class="cls-6" d="M122.9807,63.4184s1.0918-5.1561.7463-7.5175-.7486-4.2619-.7486-4.2619"/><path class="cls-6" d="M118.645,74.0581s-.9658,1.7121-1.0809.618"/><path class="cls-6" d="M118.0248,71.7966a38.9764,38.9764,0,0,0,1.3825-6.6232c0-1.8431.0574-5.0684.0574-5.0684"/><path class="cls-6" d="M139.4417,66.9648a6.3975,6.3975,0,0,1-.4537,3.0459"/><path class="cls-6" d="M136.8571,71.3352a35.52,35.52,0,0,1-4.4347,0,5.0316,5.0316,0,0,1-2.4188-.9212"/><path class="cls-6" d="M133.0022,51.67s-2.8259-1.7592-3.1715-2.6231"/><path class="cls-6" d="M127.124,51.8114a19.4526,19.4526,0,0,0-2.0735,6.5654c-.1728,2.995,1.21,6.45,1.44,7.1992"/><path class="cls-6" d="M149.1205,86.2566s.3487,1.09-1.4367-.1772"/><path class="cls-6" d="M145.3225,84.2365s-5.5863-3.4558-7.4295-6.5658-1.67-5.068-1.67-5.068"/><path class="cls-6" d="M154.1962,94.6915a11.1443,11.1443,0,0,0-3.4036,1.6972"/><path class="cls-6" d="M147.2274,99.1835a12.16,12.16,0,0,1,1.9808-1.5568"/><path class="cls-6" d="M145.0389,95.3247a7.3067,7.3067,0,0,1,1.6061,1.0059"/><path class="cls-6" d="M100.0054,116.0274a9.1844,9.1844,0,0,0,3.5022-3.34c1.21-2.1884,3.7438-6.2777,4.953-8.7541s3.7438-6.22,4.8379-6.9688"/><path class="cls-6" d="M118.9751,91.6117s-2.2788,2.07-2.6242,2.5308"/><path class="cls-6" d="M108.8632,111.3047s5.7593,8.4412,5.7593,13.09"/><path class="cls-6" d="M115.1978,98.864s-.1152,2.0733-.0574,4.8378,2.7644,5.7018,3.11,6.22"/><path class="cls-7" d="M101.1447,59.01c.1152-.1152.9215-1.2095,1.555-1.0942s4.8955,1.0366,5.8169,1.7277,2.0157,1.9,2.0157,2.9373.23,4.2618.23,5.1833-.403.9217-.9214.7487-6.7961-2.2462-7.2855-2.275-1.1232-.2592-1.2383-.7486a9.4866,9.4866,0,0,1-.8-2.7508A8.4646,8.4646,0,0,1,101.1447,59.01Z"/><path class="cls-7" d="M100.9715,74.1567c-.0074.7014.4321.4031,1.3247.4608s5.6152.7776,6.364.72,1.3826-1.2092,1.3826-1.8428a20.7655,20.7655,0,0,0-.2594-3.0525,3.1741,3.1741,0,0,0-1.123-1.5261,43.8653,43.8653,0,0,0-6.7672-1.4974c-.4321.0864-1.3942,1.18-1.3942,1.18a24.3691,24.3691,0,0,0-.3057,3.5C100.1933,73.7905,100.9715,74.1567,100.9715,74.1567Z"/><path class="cls-6" d="M108.4009,76.5177s1.3821.173,1.44,1.0367a27.5975,27.5975,0,0,1-.2878,4.4923c-.173.6336-1.613,1.3247-2.3038,1.4974a11.5342,11.5342,0,0,1-4.4346-.0576,5.6219,5.6219,0,0,1-1.5552-1.0367"/><path class="cls-7" d="M107.45,76.1435c-.288-.029-4.2332-.49-5.097-.4032a1.974,1.974,0,0,0-1.4686,1.2094c-.144.3168-.26.26-.26,2.0965a10.1533,10.1533,0,0,0,.6341,3.4039"/><path class="cls-6" d="M107.6807,84.9549a2.4368,2.4368,0,0,1,1.3822,1.44c.23.9791,0,2.4764-.2879,4.78"/><path class="cls-7" d="M106.2112,84.7532s-4.4347.0287-4.8954.1728-1.0093,2.1591-1.0093,2.1591a15.9947,15.9947,0,0,0-.2222,5.1009"/><path class="cls-8" d="M113.4959,61.7161s-.72,0-.72,1.0655a6.6915,6.6915,0,0,0,.8351,3.254c.4032.3742,1.9006.4033,3.0812.23s1.8143-.4608,1.9006-1.0655-.8639-.3743-1.7278-1.0367-1.0077-1.2384-1.7565-1.7566a4.8768,4.8768,0,0,0-1.6127-.6911"/><path class="cls-8" d="M117.9307,68.9441s-.4609-.3457-1.0656-.8928a6.4443,6.4443,0,0,0-2.9948-.7776,2.01,2.01,0,0,0-1.4111,1.8431c-.0287.979.2591,2.4765.95,2.534a7.2759,7.2759,0,0,0,3.1964-.9214c.95-.5472,1.4974-.8351,1.3248-1.7853"/><path class="cls-8" d="M117.2394,72.2265s-2.7645.9791-3.5421,1.3247-.6334,2.16-.144,3.1389,1.21,1.1232,2.16.3744a8.3487,8.3487,0,0,0,1.9868-3.34c.1441-.5759.1441-2.3037-.4606-1.4975"/><path class="cls-8" d="M116.692,78.3026c-.2014.0287-2.5054,1.8142-3.3116,2.3613a2.0419,2.0419,0,0,0-.7486,2.3036c.2591.6913,1.67.72,2.39.23s1.67-.8062,1.7853-1.4974.6336-4.3482-.1152-3.3979"/><path class="cls-8" d="M116.0589,84.9831a28.2029,28.2029,0,0,0-4.2044,3.7434c-1.1518,1.4974-1.2671,5.3563-.8639,6.9112s1.0366.9788,1.9.0575a45.5889,45.5889,0,0,1,3.9164-3.2827c.7488-.5761,1.2958-.5759,1.0655-1.0367a2.6249,2.6249,0,0,1-.5184-1.3536c-.0287-.6909.0576-1.2382-.0287-2.4477s-.2592-3.11-1.267-2.5914"/><path class="cls-8" d="M101.5742,86.0484s5.356-.5761,5.932.23.9213,1.0366.6335,2.9947-.9214,7.1991-1.3821,9.215-3.2829,10.0787-3.686,10.9426-1.3246,1.6123-1.555-1.44-.6624-13.4192-.72-14.6285.3742-6.0471.4032-6.508a1.4033,1.4033,0,0,1,.3745-.8062"/><path class="cls-8" d="M101.43,77.3227s.5184-1.0943,1.0942-1.1807a23.6943,23.6943,0,0,1,5.097.6336c.8063.3167,1.1518.144,1.3535.8352a14.0819,14.0819,0,0,1,0,4.1178A2.8994,2.8994,0,0,1,106.93,82.88a11.11,11.11,0,0,1-3.3692.2592,3.7764,3.7764,0,0,1-2.0733-1.152,15.8327,15.8327,0,0,1-.0576-4.6649"/><path class="cls-8" d="M101.2572,73.3489a33.2967,33.2967,0,0,1,.115-4.4347,2.0035,2.0035,0,0,1,1.1806-.7776c.4321-.0575,5.6731,1.0654,5.9323,1.411a3.7472,3.7472,0,0,1,.7486,1.7568,6.6977,6.6977,0,0,1,.1154,2.5052,1.1323,1.1323,0,0,1-.85.864,23.2316,23.2316,0,0,1-3.8011-.4464c-.59-.144-2.2031-.1295-2.6638-.3166s-.7344-.1441-.7774-.5617"/><path class="cls-8" d="M101.2132,59.958s.72-1.0077,1.2671-1.123a22.0708,22.0708,0,0,1,5.2985,1.2384c.5471.3454,1.8718,1.5838,1.9581,2.3613a43.5035,43.5035,0,0,1,.2881,4.6072c-.0864.6336-.3456.8065-1.0944.3457s-6.45-1.8143-6.8247-1.9871a1.7418,1.7418,0,0,1-.6912-1.123c-.0575-.3167-.2015-4.32-.2015-4.32"/><path class="cls-6" d="M119.4073,65.1734a6.3008,6.3008,0,0,1-4.5739,1.84"/><path class="cls-6" d="M113.624,61.052s-1.1807-.1151-1.4686.144-.2305,2.6206.0863,3.9163a1.9875,1.9875,0,0,0,1.3823,1.5263"/><path class="cls-9" d="M112.5008,67.4161a3.67,3.67,0,0,0-1.0366,1.9582,9.2887,9.2887,0,0,0,.9215,3.4555c.2591.2593,3.6858-.72,3.8875-.8063"/><path class="cls-6" d="M112.5008,73.6361a16.3707,16.3707,0,0,0-.46,2.1022,5.0616,5.0616,0,0,0,.8063,2.6492c.2878.49,1.8716-.0575,1.8716-.0575"/><path class="cls-6" d="M113.3936,79.3091s-1.4688.6337-1.7567,1.6126a4.7615,4.7615,0,0,0,.1441,2.9373c.3168.691.7777.9792,1.2959.7775"/><path class="cls-6" d="M115.6973,84.2334s-4.8665,3.0525-5.3273,5.5289"/><path class="cls-6" d="M115.6385,62.06a12.7022,12.7022,0,0,0-5.1258-3.0813"/><path class="cls-6" d="M101.7575,38.965a3.4233,3.4233,0,0,1,1.9005-1.6127c1.5552-.6909,3.7437-.5761,6.3353-.6336S115.9254,34.3,115.9254,34.3"/><line class="cls-6" x1="100.0097" y1="40.4318" x2="100.0003" y2="40.8946"/><path class="cls-6" d="M156.0144,99.7179a9.0956,9.0956,0,0,0,3.1374,2.2621,11.4768,11.4768,0,0,0,3.2693.5508"/><path class="cls-6" d="M154.5749,100.2248a11.8529,11.8529,0,0,1,.7689,4.37,16.1786,16.1786,0,0,1-.29,2.8571"/><path class="cls-6" d="M163.51,106.3164c-.6951,1.6924-4.8985,4.6014-7.81,5.1729"/><line class="cls-6" x1="165.2077" y1="110.0943" x2="164.0408" y2="110.8187"/><line class="cls-6" x1="162.8076" y1="111.8872" x2="161.6407" y2="112.6114"/><line class="cls-6" x1="157.1401" y1="112.2871" x2="155.9733" y2="113.0114"/><path class="cls-10" d="M99.99,39.5385s.6369,10.952-.6962,13.2366"/><path class="cls-11" d="M101.5823,53.0037a6.5923,6.5923,0,0,1-1.1949-3.1983"/><path class="cls-4" d="M100.0132,29.6979a19.3572,19.3572,0,0,0,2.52-.1485c.6345-.1058,4.3837-3.8093,4.8536-4.4753s.9392-1.36.9392-1.36"/><path class="cls-4" d="M100.0132,29.6979a6.0106,6.0106,0,0,1-2.5557-.4356,37.6642,37.6642,0,0,1-4.642-4.1882c-.47-.666-.9392-1.36-.9392-1.36"/><path class="cls-6" d="M107.175,27.61s-2.2231,7.6806-4.4436,9.8633"/></g></svg>