<svg id="Layer_1" data-name="Layer 1" xmlns="http://www.w3.org/2000/svg" xmlns:xlink="http://www.w3.org/1999/xlink" width="200" height="112" viewBox="0 0 200 112"><defs><style>.cls-1,.cls-10,.cls-11,.cls-4,.cls-6,.cls-8,.cls-9{fill:none;}.cls-2{clip-path:url(#clip-path);}.cls-3{fill:#fff;}.cls-3,.cls-5,.cls-7{fill-rule:evenodd;}.cls-10,.cls-11,.cls-4,.cls-6,.cls-8,.cls-9{stroke:#070836;stroke-linecap:round;stroke-miterlimit:2.6131;}.cls-4{stroke-width:0.8623px;}.cls-5{fill:#2478ff;}.cls-6{stroke-width:0.8641px;}.cls-7{fill:#0f2752;}.cls-8{stroke-width:0.8711px;}.cls-9{stroke-width:0.8641px;}.cls-10{stroke-width:0.871px;}.cls-11{stroke-width:0.871px;}</style><clipPath id="clip-path"><rect class="cls-1" x="-1.8471" y="-7.2739" width="203.6942" height="190.1061"/></clipPath></defs><g class="cls-2"><path class="cls-3" d="M34.3884,116.1289v0m131.2237,0v0M89.6,40.378c-.2417.5858-6.5733,5.4138-7.3744,5.9486-.8058.5379-2.9682.4963-5.7249-.6624s-5.2131-.7448-7.5457-.2068a19.0516,19.0516,0,0,0-8.5662,5.5869,35.1739,35.1739,0,0,0-4.3257,8.525c-.8483,2.483-.6784,11.0907-.5937,11.5047s-5.8518,10.6768-7.2938,14.4013a41.7467,41.7467,0,0,0-1.9508,9.1872s-6.7009,10.4288-8.8213,14.7326c-1.3414,2.7229-2.4107,5.2468-3.0154,6.7339-.9467,1.52-5.3919,8.1622-5.8943,8.6035-.1253-.0444-.1816-.0623-.1816-.0623a18.0818,18.0818,0,0,1-1.8849.4575,2.9771,2.9771,0,0,0-1.4705.6366c-.5282.3648-1.9164,1.1251-1.9164,1.1251s-3.3913,1.2527-4.1655,1.4946a24.18,24.18,0,0,0-4.4038,3.1939,12.9376,12.9376,0,0,1-3.8221,1.9354c-.871.2421-2.6617.29-2.8551.6776a3.4419,3.4419,0,0,0,1.0162,3c.9679.6776,1.8389,1.5,3.7261.6776s3.4357-1.5,3.4357-1.5a25.6375,25.6375,0,0,1-1.0647,3.8227c-.4353.8228-3.3385,5.2744-4.1128,6.5808s-3,5.0811-3.1455,6.3878.3876,1.5969,1.5,1.7421,2.3709-1.1126,2.9518-2.0806,5.5649-8.662,5.5649-8.662-6.3876,11.3715-6.5812,12.5332-.242,2.129,1.4517,2.2261,2.2259-1.9844,2.7585-2.9521,5.6135-9.7752,5.6135-9.7752-5.3717,10.1143-5.5167,11.3723.8712,1.79,2.0808,1.4031,2.6254-2.8545,2.9515-3.6291,2.6535-5.263,3.6326-7.1543v.3444c-.8474,2.1231-2.971,6.7856-2.0838,7.6325s2.2479-1.4448,3.1342-2.8895c.0873-.1423.211-.3467.3631-.5988,1.0165-1.6418,3.9553-6.5667,5.2008-8.7247.25-.4137,1.4038-2.316,1.8864-3.0393.0943-.1413.2455-.3737.4358-.671.655-.9838,1.4029-2.1317,2.1053-3.3258.3719-.6325.7395-1.2817,1.0852-1.9072.1227-.2174.2349-.4209.333-.6051l.0369-.0693c.9326-1.7155,1.6348-3.1133,1.6983-3.24l.0006-.0006.008-.0117c.0956-.0792,2.2724-1.8934,2.6687-3.3981q.0561-.2133.1023-.4a75.8053,75.8053,0,0,1,5.3629-6.38c3.9867-4.1384,10.857-9.932,12.5533-13.4083s1.6962-3.5589,1.6962-3.5589.9332-.2483,1.4421-2.5658a20.0643,20.0643,0,0,0,.509-2.7313s2.9686-6.7042,4.6649-9.6009a15.8666,15.8666,0,0,0,1.9507-4.2213A53.4859,53.4859,0,0,0,72.434,95.4073c2.2054,4.966,4.4107,9.0216,4.8347,11.2563s-.5936,8.6079-1.1876,12.0014a30.8623,30.8623,0,0,1-1.2975,5.2241l.1168,1.7283c-.99,2.2972-3.0525,7.1156-3.305,12.0387-.3078,6.0042-3.6946,16.1655-4.9263,22.0155s-1.8476,10.373-1.8476,10.373h33.87s-.3081-4.4459-.3081-5.4463-.3849-1.6933,0-2.694A10.6238,10.6238,0,0,1,100,159.5179a10.63,10.63,0,0,1,1.6163,2.3864c.3848,1.0007,0,1.6935,0,2.694s-.3081,5.4463-.3081,5.4463h33.8705s-.6157-4.5227-1.8478-10.373-4.6182-16.0113-4.9263-22.0155c-.2524-4.9231-2.3152-9.7415-3.3048-12.0387l-.2653-2.354s-.3217-1.205-.9156-4.5984-1.6115-9.7665-1.1874-12.0014,2.6294-6.29,4.8347-11.2563a53.4855,53.4855,0,0,0,3.223-10.5942,15.8645,15.8645,0,0,0,1.9509,4.2213c1.6963,2.8967,4.665,9.6009,4.665,9.6009a20.0679,20.0679,0,0,0,.5089,2.7313c.5088,2.3175,1.442,2.5658,1.442,2.5658s0,.0828,1.6962,3.5589,8.5665,9.27,12.5532,13.4083a75.75,75.75,0,0,1,5.363,6.38q.0466.1869.1024.4c.3961,1.5047,2.573,3.3189,2.6687,3.3981l.008.0117.0005.0006c.0636.1268.7657,1.5246,1.6984,3.24l.0368.0693c.0982.1842.21.3877.333.6051.3457.6255.7133,1.2747,1.0852,1.9072.7023,1.1941,1.45,2.342,2.1052,3.3258.19.2973.3415.53.436.671.4826.7233,1.6362,2.6256,1.8863,3.0393,1.2454,2.158,4.1843,7.0829,5.201,8.7247.1519.2521.2757.4565.3628.5988.8865,1.4447,2.2472,3.7362,3.1342,2.8895s-1.2362-5.5094-2.0836-7.6325v-.3444c.9791,1.8913,3.3064,6.38,3.6326,7.1543s1.7417,3.2422,2.9515,3.6291,2.226-.1452,2.0808-1.4031-5.5168-11.3723-5.5168-11.3723,5.0815,8.8075,5.6136,9.7752,1.0646,3.0489,2.7585,2.9521,1.6452-1.0647,1.4517-2.2261-6.5812-12.5332-6.5812-12.5332,4.9838,7.6938,5.5648,8.662,1.8389,2.2257,2.9518,2.0806,1.6453-.4356,1.5-1.7421-2.3712-5.0811-3.1455-6.3878-3.6775-5.758-4.1128-6.5808a25.6251,25.6251,0,0,1-1.0647-3.8227s1.5483.6775,3.4357,1.5,2.7582,0,3.7261-.6776a3.4415,3.4415,0,0,0,1.0161-3c-.1933-.3872-1.984-.4355-2.855-.6776a12.94,12.94,0,0,1-3.8223-1.9354,24.1721,24.1721,0,0,0-4.4036-3.1939c-.7742-.2419-4.1657-1.4946-4.1657-1.4946s-1.388-.76-1.9163-1.1251a2.9767,2.9767,0,0,0-1.47-.6366,18.0847,18.0847,0,0,1-1.8848-.4575s-.0563.0179-.1816.0623c-.5025-.4413-4.9476-7.0836-5.8944-8.6035-.6046-1.4871-1.6738-4.011-3.0154-6.7339-2.12-4.3038-8.8212-14.7326-8.8212-14.7326a41.7467,41.7467,0,0,0-1.9508-9.1872c-1.442-3.7245-7.3786-13.9875-7.2938-14.4013s.2545-9.0217-.5937-11.5047a35.1739,35.1739,0,0,0-4.3257-8.525,19.0525,19.0525,0,0,0-8.5663-5.5869c-2.3324-.538-4.7891-.9519-7.5458.2068s-4.9189,1.2-5.7249.6624c-.6941-.4634-5.5432-4.1523-6.9811-5.5089l.31-3.9966.1318-1.1725c.0611-1.4669.1507-2.8977.1507-2.8977.3814-1.2633.8439-4.4525.8439-4.4525s1.8771-.7506,2.1452-1.6626c.5518-1.8762,1.6847-4.594.81-6.757a1.0414,1.0414,0,0,0-1.8774-.1608c-.4291.8045-.3753,4.8805-.3753,4.8805l-1.1266.8583s-.0814-6.5435-.4567-7.7768-1.0844-1.6083-1.0312-3.0563-1.9389-3.7553-3.9231-3.1116c-1.775.5756-4.4125,2.0525-6.1778,2.012-1.7653.04-4.4025-1.4364-6.1774-2.012-1.9844-.6437-3.9765,1.6632-3.9231,3.1116s-.6559,1.8227-1.0315,3.0563-.4567,7.7768-.4567,7.7768l-1.1264-.8583s.0537-4.076-.3755-4.8805a1.0412,1.0412,0,0,0-1.8772.1608c-.8749,2.163.2579,4.8808.81,6.757.2681.912,2.145,1.6626,2.145,1.6626s.4626,3.1892.844,4.4525C89.2077,35.3014,89.384,37.8308,89.6,40.378Z"/><path class="cls-4" d="M34.3884,116.1289v0m131.2238,0v0M89.6,40.378c-.2417.5857-6.5733,5.4138-7.3744,5.9486-.8058.5379-2.9682.4963-5.7249-.6624s-5.2131-.7448-7.5457-.2068a19.0516,19.0516,0,0,0-8.5662,5.5869,35.1739,35.1739,0,0,0-4.3257,8.525c-.8483,2.483-.6784,11.0907-.5937,11.5047s-5.8518,10.6768-7.2938,14.4013a41.7467,41.7467,0,0,0-1.9508,9.1872s-6.7009,10.4288-8.8213,14.7326c-1.3414,2.7229-2.4107,5.2468-3.0154,6.7339-.9467,1.52-5.3919,8.1622-5.8943,8.6035-.1253-.0444-.1816-.0623-.1816-.0623a18.0818,18.0818,0,0,1-1.8849.4575,2.9762,2.9762,0,0,0-1.4705.6366c-.5282.3648-1.9164,1.1251-1.9164,1.1251s-3.3913,1.2527-4.1655,1.4946a24.18,24.18,0,0,0-4.4038,3.1939,12.9376,12.9376,0,0,1-3.8221,1.9354c-.871.2421-2.6617.29-2.8551.6776a3.4417,3.4417,0,0,0,1.0162,3c.9679.6777,1.8389,1.5,3.7261.6777s3.4357-1.5,3.4357-1.5a25.6375,25.6375,0,0,1-1.0647,3.8227c-.4353.8228-3.3385,5.2744-4.1128,6.5808s-3,5.0811-3.1455,6.3878.3876,1.5969,1.5,1.7421,2.3709-1.1126,2.9518-2.0806,5.5649-8.662,5.5649-8.662-6.3876,11.3715-6.5812,12.5332-.242,2.129,1.4517,2.2261,2.226-1.9844,2.7585-2.9521,5.6135-9.7752,5.6135-9.7752-5.3717,10.1143-5.5167,11.3723.8712,1.79,2.0808,1.4031,2.6254-2.8545,2.9515-3.6291,2.6535-5.263,3.6326-7.1543v.3444c-.8474,2.1231-2.971,6.7856-2.0838,7.6325s2.2479-1.4448,3.1342-2.8895c.0873-.1423.211-.3467.3631-.5988,1.0165-1.6418,3.9553-6.5667,5.2008-8.7247.25-.4137,1.4038-2.316,1.8864-3.0393.0943-.1413.2455-.3737.4358-.671.655-.9838,1.403-2.1317,2.1053-3.3258.3719-.6325.7395-1.2817,1.0852-1.9072.1227-.2174.2349-.4209.333-.6051l.0369-.0693c.9326-1.7155,1.6348-3.1133,1.6983-3.24l.0006-.0006.008-.0117c.0956-.0792,2.2724-1.8934,2.6687-3.3981.0374-.1423.0713-.2753.1023-.4a75.8053,75.8053,0,0,1,5.3629-6.38c3.9867-4.1384,10.857-9.932,12.5534-13.4083s1.6961-3.5589,1.6961-3.5589.9332-.2483,1.4421-2.5658a20.0643,20.0643,0,0,0,.509-2.7313s2.9686-6.7042,4.6649-9.6009a15.862,15.862,0,0,0,1.9507-4.2213A53.4859,53.4859,0,0,0,72.434,95.4073c2.2054,4.966,4.4107,9.0216,4.8347,11.2563s-.5936,8.6079-1.1876,12.0014a30.8623,30.8623,0,0,1-1.2975,5.2241l.1168,1.7283c-.99,2.2972-3.0525,7.1156-3.305,12.0386-.3078,6.0043-3.6946,16.1656-4.9263,22.0156s-1.8476,10.373-1.8476,10.373h33.87s-.308-4.4459-.308-5.4463-.385-1.6933,0-2.694A10.6212,10.6212,0,0,1,100,159.5179a10.63,10.63,0,0,1,1.6163,2.3864c.3848,1.0007,0,1.6935,0,2.694s-.3081,5.4463-.3081,5.4463h33.8705s-.6157-4.5227-1.8478-10.373-4.6182-16.0113-4.9263-22.0156c-.2524-4.923-2.3152-9.7414-3.3048-12.0386l-.2653-2.354s-.3217-1.205-.9156-4.5984-1.6115-9.7665-1.1874-12.0014,2.6294-6.29,4.8347-11.2563a53.4855,53.4855,0,0,0,3.223-10.5942,15.8645,15.8645,0,0,0,1.9509,4.2213c1.6963,2.8967,4.665,9.6009,4.665,9.6009a20.0679,20.0679,0,0,0,.5089,2.7313c.5088,2.3175,1.442,2.5658,1.442,2.5658s0,.0828,1.6962,3.5589,8.5665,9.27,12.5533,13.4083a75.7674,75.7674,0,0,1,5.3629,6.38c.0311.1246.065.2576.1024.4.3961,1.5047,2.573,3.3189,2.6687,3.3981l.008.0117.0005.0006c.0636.1268.7657,1.5246,1.6984,3.24l.0368.0693c.0982.1842.21.3877.333.6051.3457.6255.7133,1.2747,1.0852,1.9072.7023,1.1941,1.45,2.342,2.1053,3.3258.19.2973.3414.53.4359.671.4827.7233,1.6362,2.6256,1.8863,3.0393,1.2454,2.158,4.1843,7.0829,5.201,8.7247.1519.2521.2757.4565.3628.5988.8865,1.4447,2.2472,3.7362,3.1342,2.8895s-1.2362-5.5094-2.0836-7.6325v-.3444c.9792,1.8913,3.3064,6.38,3.6326,7.1543s1.7417,3.2422,2.9515,3.6291,2.226-.1452,2.0808-1.4031-5.5168-11.3723-5.5168-11.3723,5.0815,8.8075,5.6136,9.7752,1.0646,3.0489,2.7585,2.9521,1.6452-1.0647,1.4517-2.2261-6.5812-12.5332-6.5812-12.5332,4.9838,7.6938,5.5648,8.662,1.8389,2.2257,2.9518,2.0806,1.6453-.4356,1.5-1.7421-2.3712-5.0811-3.1455-6.3878-3.6775-5.758-4.1128-6.5808a25.6251,25.6251,0,0,1-1.0647-3.8227s1.5483.6775,3.4357,1.5,2.7582,0,3.7261-.6777a3.4417,3.4417,0,0,0,1.0162-3c-.1933-.3872-1.9841-.4355-2.8551-.6776a12.94,12.94,0,0,1-3.8223-1.9354,24.1721,24.1721,0,0,0-4.4036-3.1939c-.7742-.2419-4.1657-1.4946-4.1657-1.4946s-1.388-.76-1.9163-1.1251a2.9755,2.9755,0,0,0-1.47-.6366,18.0847,18.0847,0,0,1-1.8848-.4575s-.0563.0179-.1816.0623c-.5024-.4413-4.9476-7.0836-5.8943-8.6035-.6047-1.4871-1.6739-4.011-3.0155-6.7339-2.12-4.3038-8.8212-14.7326-8.8212-14.7326a41.7467,41.7467,0,0,0-1.9508-9.1872c-1.442-3.7245-7.3786-13.9875-7.2938-14.4013s.2545-9.0217-.5937-11.5047a35.1739,35.1739,0,0,0-4.3257-8.525,19.0527,19.0527,0,0,0-8.5662-5.5869c-2.3325-.538-4.7892-.9519-7.5459.2068s-4.9189,1.2-5.7249.6624c-.6941-.4634-5.5432-4.1523-6.9811-5.5089l.31-3.9966.1318-1.1725c.0612-1.4669.1507-2.8977.1507-2.8977.3814-1.2633.8439-4.4525.8439-4.4525s1.8771-.7506,2.1452-1.6626c.5518-1.8762,1.6847-4.594.81-6.757a1.0414,1.0414,0,0,0-1.8774-.1608c-.4291.8045-.3753,4.8805-.3753,4.8805l-1.1266.8583s-.0814-6.5435-.4567-7.7769-1.0844-1.6082-1.0312-3.0562-1.9389-3.7553-3.9231-3.1116c-1.775.5756-4.4124,2.0524-6.1778,2.0119-1.7653.0405-4.4025-1.4363-6.1774-2.0119-1.9844-.6437-3.9765,1.6632-3.9231,3.1116s-.6559,1.8227-1.0315,3.0562-.4567,7.7769-.4567,7.7769l-1.1264-.8583s.0537-4.076-.3755-4.8805a1.0412,1.0412,0,0,0-1.8772.1608c-.8749,2.163.2579,4.8808.81,6.757.2681.912,2.145,1.6626,2.145,1.6626s.4627,3.1892.844,4.4525C89.2077,35.3014,89.384,37.8308,89.6,40.378Z"/><path class="cls-5" d="M141.8346,106.9716a11.9041,11.9041,0,0,1,1.271-2.466c.54-.5973,1.7063-1.1377,1.9624-1.5359a3.2407,3.2407,0,0,0,.37-.91s2.4175,1.0239,3.1285,1.3368a6.0526,6.0526,0,0,0,1.9341.3128s1.28-4.7781,1.7064-6.0011a19.9016,19.9016,0,0,0,.711-5.9727,63.69,63.69,0,0,0-3.1285-11.4336,16.1107,16.1107,0,0,0-3.6973-5.0626,20.6582,20.6582,0,0,1,.3412,3.1855,17.1629,17.1629,0,0,1-.1138,2.19s-4.5981-8.2354-7.8024-10.8013a19.747,19.747,0,0,0-5.9347-3.3908s-.5118-.3127-.3128,1.1377-.2566,3.6116-.2566,5.0336.3128,4.4936.455,6.1718.1823,3.8976.1823,3.8976,4.5954,8.7016,6.2165,11.3751,2.9866,4.3517,2.9581,5.0911a1.726,1.726,0,0,1-.7112,1.5074c-.4548.3128-1.0286,2.7457-1.0286,2.7457Z"/><path class="cls-5" d="M58.7373,106.6059s-1.1816-1.503-1.722-2.1-1.7063-1.1377-1.9625-1.5359a3.2388,3.2388,0,0,1-.37-.91s-2.4175,1.0239-3.1285,1.3368a6.053,6.053,0,0,1-1.9341.3128s-1.28-4.7781-1.7064-6.0011a19.9015,19.9015,0,0,1-.7111-5.9727,63.7,63.7,0,0,1,3.1286-11.4336,16.1113,16.1113,0,0,1,3.6972-5.0626,20.664,20.664,0,0,0-.3411,3.1855,17.1629,17.1629,0,0,0,.1138,2.19s4.598-8.2354,7.8023-10.8013a19.7467,19.7467,0,0,1,5.9348-3.3908s.5118-.3127.3128,1.1377.2566,3.6116.2566,5.0336-.3129,4.4936-.455,6.1718-.1824,3.8976-.1824,3.8976-4.5953,8.7016-6.2165,11.3751S58.2676,98.39,58.2961,99.13a1.726,1.726,0,0,0,.7112,1.5074,9.7545,9.7545,0,0,1,1.38,1.8561Z"/><path class="cls-6" d="M153.4836,91.6a49.0722,49.0722,0,0,1-2.2,10.0969"/><path class="cls-7" d="M100.2167,13.5094c-1.864-.1615-4.5562-1.4644-6.1775-1.9966-1.96-.6436-3.9165,1.4481-3.9183,2.8963s-.6139,2.038-1.0361,3.2715-.4569,7.7769-.4569,7.7769l-1.0939-.8582s.209-4.0761-.1894-4.88a1.0509,1.0509,0,0,0-1.1825-.45s.0049-2.4461.0618-5.3422a5.6473,5.6473,0,0,1,1.4979-4.13s-.5388-1.3407,1.7623-4.0223c1.9453-2.2671,6.0392-3.5758,10.7326-3.2457,4.6935-.33,8.7873.9786,10.7326,3.2457,2.3011,2.6816,1.7624,4.0223,1.7624,4.0223a5.647,5.647,0,0,1,1.4978,4.13c.057,2.8961.0618,5.3422.0618,5.3422a1.0508,1.0508,0,0,0-1.1824.45c-.3984.8044-.1895,4.88-.1895,4.88l-1.0939.8582s-.0345-6.5434-.4568-7.7769-1.0346-1.8231-1.0363-3.2715-1.9583-3.54-3.9182-2.8963C104.773,12.045,102.0807,13.3479,100.2167,13.5094Z"/><path class="cls-8" d="M100.2167,13.5094c-1.864-.1615-4.5562-1.4644-6.1775-1.9966-1.96-.6436-3.9165,1.4481-3.9183,2.8963s-.6139,2.038-1.0361,3.2715-.4569,7.7769-.4569,7.7769l-1.0939-.8582s.209-4.0761-.1894-4.88a1.0509,1.0509,0,0,0-1.1825-.45s.0049-2.4461.0618-5.3422a5.6473,5.6473,0,0,1,1.4979-4.13s-.5388-1.3407,1.7623-4.0223c1.9453-2.2671,6.0392-3.5758,10.7326-3.2457,4.6935-.33,8.7873.9786,10.7326,3.2457,2.3011,2.6816,1.7624,4.0223,1.7624,4.0223a5.647,5.647,0,0,1,1.4978,4.13c.057,2.8961.0618,5.3422.0618,5.3422a1.0508,1.0508,0,0,0-1.1824.45c-.3984.8044-.1895,4.88-.1895,4.88l-1.0939.8582s-.0345-6.5434-.4568-7.7769-1.0346-1.8231-1.0363-3.2715-1.9583-3.54-3.9182-2.8963C104.773,12.045,102.0807,13.3479,100.2167,13.5094Z"/><path class="cls-8" d="M88.36,29.8019a29.0911,29.0911,0,0,1-.3106-3.0058"/><path class="cls-8" d="M100.096,40.6232a8.226,8.226,0,0,1-3.4993-.5967A51.53,51.53,0,0,1,90.24,34.2917c-.6434-.9119-1.2861-1.8625-1.2861-1.8625"/><path class="cls-8" d="M112.0738,29.8019a29.0911,29.0911,0,0,0,.3106-3.0058"/><path class="cls-8" d="M100.096,40.6232a26.5224,26.5224,0,0,0,3.451-.2035c.8689-.1448,6.0026-5.216,6.6461-6.128s1.2859-1.8625,1.2859-1.8625"/><path class="cls-4" d="M69.2108,84.8131a17.947,17.947,0,0,1-1.18-4.8431V76.3282s-.0766-9.1949-.4077-11.3468"/><path class="cls-6" d="M46.6373,91.6a49.0722,49.0722,0,0,0,2.2,10.0969"/><path class="cls-6" d="M68.0307,79.97s-5.0886,6.58-9.8383,9.9737"/><path class="cls-6" d="M91.192,37.14c2.0939,7.1293,3.1156,10.8838,5.8629,12.5379"/><path class="cls-6" d="M96.763,51.2863a7.6646,7.6646,0,0,0-3.0482-1.94c-1.4418-.29-6.2171.3309-8.8465.2482a16.47,16.47,0,0,1-5.7253-1.6553"/><path class="cls-6" d="M99.0336,79.8462a1.8376,1.8376,0,0,0-1.6965-1.4071c-1.3569,0-9.33,3.3933-9.9236,4.221s-.9331,5.2972-1.1028,7.4492-.2544,3.5589.5091,3.7244,5.6827-3.3106,7.7183-4.221,4.1559-.0828,4.9195-.7449.2969-3.5591.2969-4.8006A20.8119,20.8119,0,0,0,99.0336,79.8462Z"/><path class="cls-6" d="M99.81,93.0474a5.8586,5.8586,0,0,0-.5937-1.4483c-.2969-.3725-1.9085-.2486-3.8168.0412s-5.81,2.69-6.4039,2.98A5.6189,5.6189,0,0,0,86.96,97.3513c-.085.7863-.2122,4.3869-.3394,4.8834s1.4418.4965,3.2655-.3725a24.5669,24.5669,0,0,1,6.87-1.3657c1.06-.0414,1.8658.6622,2.5869-.3311S99.81,93.0474,99.81,93.0474Z"/><path class="cls-6" d="M99.66,103.5176a5.9429,5.9429,0,0,0-1.1026-1.3658,5.9254,5.9254,0,0,0-3.4352-.3723,50.3977,50.3977,0,0,0-7.3792,2.5243c-.7209.4139-.7632,1.5727-.8482,2.4s.0848,5.7522.0848,6.58.8057,1.2417,1.7812,1.283a71.3712,71.3712,0,0,0,9.16-1.78c1.4-.4552,1.866-.869,1.9934-1.6139S99.66,103.5176,99.66,103.5176Z"/><path class="cls-4" d="M130.79,84.8131a17.9457,17.9457,0,0,0,1.18-4.8431V76.3282s-.7023-8.9121.746-11.8917"/><path class="cls-6" d="M131.97,79.97s5.0885,6.58,9.8384,9.9737"/><path class="cls-9" d="M106.3506,42.8326s.1556,1.6883-4.0679,6.9609"/><path class="cls-6" d="M102.906,51.038a7.6654,7.6654,0,0,1,3.0484-1.94c1.4418-.29,6.5481.5792,9.1776.4965a16.4716,16.4716,0,0,0,5.7253-1.6553"/><path class="cls-6" d="M100.9666,79.8462a1.8377,1.8377,0,0,1,1.6964-1.4071c1.3572,0,9.33,3.3933,9.9238,4.221s.933,5.2972,1.1026,7.4492.2546,3.5589-.5088,3.7244-5.683-3.3106-7.7185-4.221-4.156-.0828-4.92-.7449-.297-3.5591-.297-4.8006A20.8113,20.8113,0,0,1,100.9666,79.8462Z"/><path class="cls-6" d="M100.116,93.0474a5.8546,5.8546,0,0,1,.5937-1.4483c.2968-.3725,1.9085-.2486,3.817.0412s5.81,2.69,6.4036,2.98a5.62,5.62,0,0,1,2.0358,2.7313c.0848.7863.212,4.3869.3392,4.8834s-1.4419.4965-3.2656-.3725a24.5656,24.5656,0,0,0-6.87-1.3657c-1.06-.0414-1.8659.6622-2.5869-.3311S100.116,93.0474,100.116,93.0474Z"/><path class="cls-6" d="M100.5146,103.5176a5.94,5.94,0,0,1,1.1026-1.3658,5.9252,5.9252,0,0,1,3.4351-.3723,50.391,50.391,0,0,1,7.3793,2.5243c.7209.4139.7632,1.5727.8481,2.4s-.0847,5.7522-.0847,6.58-.8057,1.2417-1.7813,1.283a71.3811,71.3811,0,0,1-9.16-1.78c-1.3995-.4552-1.866-.869-1.9932-1.6139S100.5146,103.5176,100.5146,103.5176Z"/><path class="cls-6" d="M99.97,53.7741s-.9964,18.9533,0,22.5127"/><path class="cls-6" d="M82.2258,46.3267a4.5276,4.5276,0,0,1-2.3939.8256"/><path class="cls-6" d="M118.2373,46.5312a10.2483,10.2483,0,0,0,3.0284.8692"/><path class="cls-6" d="M128.4354,77.7962s1.1451,2.2426-.8907,6.96"/><path class="cls-6" d="M70.1954,71.6923s.6784,4.1384,4.3257,5.6282,19.08.5821,20.3544.1255,2.5228-3.157,2.5228-3.157"/><path class="cls-6" d="M129.5755,71.6923s-.6786,4.1384-4.3258,5.6282-19.08.5821-20.3545.1255-2.5227-3.157-2.5227-3.157"/><path class="cls-10" d="M83.7333,81.29a37.9812,37.9812,0,0,0-4.0555,3.5589c-1.2416,1.4071-3.3936,2.8969-5.0489,2.8969"/><path class="cls-10" d="M75.014,100.9728s.0289-2.2193.1115-3.13,1.3245-.662,2.152-.331,4.9659,1.9036,4.9659,1.9036"/><path class="cls-10" d="M76.5293,97.2793a3.8745,3.8745,0,0,1-.9073-2.333c0-1.3243,1.6555-3.3107,1.6555-3.3107l1.6139-.5793"/><path class="cls-10" d="M74.8773,88.7388a6.57,6.57,0,0,0,1.945,2.276"/><path class="cls-10" d="M80.1329,91.0563s2.0693-.6208,2.5245.4552a11.62,11.62,0,0,1,.5793,4.5935,6.2593,6.2593,0,0,1-.7449,2.0692"/><path class="cls-10" d="M82.2434,99.4157a5.5073,5.5073,0,0,1,1.3244,2.0279,10.0719,10.0719,0,0,1-.3725,4.3454,2.074,2.074,0,0,1-1.283,1.3242"/><path class="cls-10" d="M77.8568,105.3338s2.69,1.6553,3.1865,1.8208a1.1482,1.1482,0,0,0,.869-.0414"/><path class="cls-10" d="M81.7675,107.6716a13.9015,13.9015,0,0,1,2.0279,2.6073,6.8682,6.8682,0,0,1-.3727,3.6832c-.4136,1.0345-1.0758,1.2415-1.4069,1.2415s-1.49-.207-1.49-.207"/><path class="cls-10" d="M118.9514,114.252a9.7172,9.7172,0,0,1-2.1728.5794c-.7863.0412-1.2417-.5794-1.2417-2.4831s0-2.7313.4966-3.559,4.5524-3.6417,4.5524-3.6417,1.8836-.4964,2.3179.4554"/><path class="cls-10" d="M125.73,99.3936a4.0532,4.0532,0,0,0-.8192-2.6055c-.8689-.8277-2.5243-.29-3.1864-.0414s-4.4283,1.6966-5.1731,2.8968"/><path class="cls-10" d="M115.7238,101.092a12.3741,12.3741,0,0,0-.4138,2.8141c0,1.3243-.0827,2.4831.4551,2.7314a4.83,4.83,0,0,0,1.2415.331"/><path class="cls-10" d="M119.5314,89.9185s-2.1934-.29-2.4831.1655a17.3848,17.3848,0,0,0-1.4071,2.7727,14.7007,14.7007,0,0,0,.3725,4.18,7.148,7.148,0,0,0,.9518.869"/><path class="cls-10" d="M122.3866,90.7048a22.1974,22.1974,0,0,1,1.0347,2.2347,10.764,10.764,0,0,1,.3725,2.2762"/><path class="cls-10" d="M124.7871,93.4775c.0413-.2068,1.4485-1.8207,1.6967-2.98"/><path class="cls-10" d="M125.2008,87.601a13.303,13.303,0,0,1-1.6553,2.0278"/><path class="cls-10" d="M118.29,82.7177s1.3242,1.7381,2.2347,2.8969,5.0076,2.2554,5.587,1.8416a3.91,3.91,0,0,0,.91-1.78"/><path class="cls-10" d="M72.4793,78.7036a46.6492,46.6492,0,0,0-.1655,6.4559,5.4431,5.4431,0,0,0,.9106,2.4"/><path class="cls-10" d="M73.307,89.5461a4.325,4.325,0,0,0,.2484,2.6486,5.4554,5.4554,0,0,0,2.0666,2.7516"/><path class="cls-10" d="M52.2849,100.14S42.27,110.9829,38.6283,119.9217"/><path class="cls-10" d="M46.0774,101.7956s-9.418,14.981-11.7441,16.3052"/><path class="cls-10" d="M144.9848,97.9058s9.27,9.7664,11.0908,12.4978,6.7041,9.3527,6.7041,9.3527"/><path class="cls-10" d="M153.2615,101.2164S164.4046,114.4,166.158,119.6969"/><path class="cls-10" d="M137.4055,98.6354s-.1176-2.8815,1.1239-4.5369"/><path class="cls-10" d="M62.5722,98.8606a2.7588,2.7588,0,0,0-1.3883-2.1135"/><path class="cls-11" d="M73.0611,62.1129s-3.3183,2.4141-5.24,2.8232A17.1454,17.1454,0,0,0,61.044,68.93"/><path class="cls-11" d="M128.8645,62.1129s3.3181,2.4141,5.24,2.8231a17.14,17.14,0,0,1,6.7772,3.9938"/></g></svg>