<svg id="Layer_1" data-name="Layer 1" xmlns="http://www.w3.org/2000/svg" xmlns:xlink="http://www.w3.org/1999/xlink" width="200" height="112" viewBox="0 0 200 112"><defs><style>.cls-1,.cls-10,.cls-4,.cls-6,.cls-7,.cls-9{fill:none;}.cls-2{clip-path:url(#clip-path);}.cls-3{fill:#fff;}.cls-3,.cls-5,.cls-8{fill-rule:evenodd;}.cls-10,.cls-4,.cls-6,.cls-7,.cls-9{stroke:#070836;stroke-linecap:round;stroke-miterlimit:2.6131;}.cls-4{stroke-width:0.64px;}.cls-5{fill:#2478ff;}.cls-6{stroke-width:0.64px;}.cls-7{stroke-width:0.64px;}.cls-8{fill:#0f2752;}.cls-9{stroke-width:0.64px;}.cls-10{stroke-width:0.64px;}</style><clipPath id="clip-path"><rect class="cls-1" x="26.5355" y="-12.16" width="146.929" height="184.32"/></clipPath></defs><g class="cls-2"><path class="cls-3" d="M99.6137,135.846h0m-19.7231-91.47c-1.787.4288-3.1992.6755-3.6.77-.8712.205-6.9688,1.5373-9.5822,5.2266a15.436,15.436,0,0,0-2.972,8.9674c-.1026,2.2033,0,7.2252,0,7.2252a45.6374,45.6374,0,0,0-4.3041,8.7112c-1.896,5.1242-1.9984,7.43-1.9984,7.43a35.9389,35.9389,0,0,0-4.0555,7.777l-.0688.08c-3.4012,3.9134-3.164,7.5989-3.6863,12.9081s-.6731,9.51-1.5493,12.5314S44.6184,127.22,44.3487,127.47a36.1169,36.1169,0,0,0-4.467,3.1174c-2.2911,1.9506-2.1708,3.0565-2.6826,3.6977a5.9846,5.9846,0,0,0-1.37,2.26c-.6461,1.5765-1.1894,1.561-1.4507,2.1037s.364,2.0891,1.4133,1.8079,1.8371-1.7628,2.41-2.3425a8.8827,8.8827,0,0,0,1.1854-1.83l-.06,1.4361s-2.48,5.8433-3.116,7.3441-1.9842,4.1246-1.7523,6.0432,1.8129.4766,1.8129.4766,3.3952-5.4349,4.0784-6.6994,1.1465-1.4052,1.1465-1.4052-2.0773,7.63-2.4395,9.0275-1.1785,2.9831,0,3.9778,2.1753-.9208,2.1753-.9208,2.6355-8.035,3.2066-9.8667,1.1548-.8668,1.1548-.8668-1.5123,8.5006-1.6558,9.2656a3.8566,3.8566,0,0,0,.1351,2.92c.6309.9557,2.0122.2407,2.3346-.3631s2.3688-11.1255,2.7949-11.4553.3945,1.0027.6368,2.4772.3652,5.5757.6663,6.1056,1.794.6276,1.9853-.3925-.2751-7.8525-.3667-9.0623.8755-2.7759,1.9863-5.1072,1.4995-7.0739,1.5225-8.9445,1.394-4.6177,2.5559-8.678a55.9934,55.9934,0,0,1,5.1912-11.7576,114.8548,114.8548,0,0,0,6.0951-13.6575c.4321-1.57.0126-5.5709.0126-5.5709s.0393-.3056.102-.835c.046-.3383.0776-.6221.0989-.8559.0346-.3081.0724-.6507.1116-1.0216.4469-.8954,2.94-5.9035,3.8254-7.9063.9735-2.2034,1.64-4.0481,1.64-4.0481a26.9915,26.9915,0,0,0,2.05,6.4564,50.8,50.8,0,0,1,2.1008,5.4317,10.0168,10.0168,0,0,1,.82,3.5869c.1032,1.0679.3224,2.3441.3615,3.7509a25.44,25.44,0,0,1-1.2926,6.5527c-1.0571,2.4159-.3021,4.6809-.3021,6.4928s-1.9629,16.1564-3.6238,21.5921-.4531,9.3618-.4531,13.59v4.2277l22.0453.453a13.93,13.93,0,0,0,1.6608-5.5866c.0755-2.7935.0755-6.3418.0755-6.3418l.9059-.3021h0l1.9738.3021s0,3.5483.0754,6.3418a13.9292,13.9292,0,0,0,1.6608,5.5866l22.0453-.453v-4.2277c0-4.2278,1.2079-8.1537-.4531-13.59s-3.6238-19.78-3.6238-21.5921.755-4.0769-.3021-6.4928c-1.0189-2.3286-1.336-7.0415-1.3576-7.3788.0794-1.0818.2362-2.07.3189-2.9248a10.0127,10.0127,0,0,1,.82-3.5869,50.7767,50.7767,0,0,1,2.1008-5.4317,26.9837,26.9837,0,0,0,2.05-6.4564s.6663,1.8447,1.64,4.0481c.8216,1.8593,3.0293,6.3089,3.699,7.6536h-.0877c.1849,1.7655.3393,2.9652.3393,2.9652s-.4195,4.0007.0126,5.5709A114.8548,114.8548,0,0,0,136.62,109.838a55.9934,55.9934,0,0,1,5.1912,11.7576c1.1619,4.06,2.5327,6.8073,2.5559,8.678s.4118,6.6135,1.5225,8.9445,2.0781,3.8977,1.9863,5.1072-.5579,8.0423-.3667,9.0623,1.6841.9223,1.9853.3925.4241-4.631.6663-6.1056.2109-2.8069.6368-2.4772,2.4724,10.8513,2.7948,11.4553,1.7038,1.3188,2.3347.3631a3.8566,3.8566,0,0,0,.1351-2.92c-.1435-.765-1.6558-9.2656-1.6558-9.2656s.5837-.9649,1.1548.8668,3.2066,9.8667,3.2066,9.8667.9964,1.9155,2.1753.9208.3627-2.58,0-3.9778-2.44-9.0275-2.44-9.0275.4633.1408,1.1465,1.4052,4.0784,6.6994,4.0784,6.6994,1.5811,1.442,1.8129-.4766-1.1157-4.5424-1.7523-6.0432-3.1159-7.3441-3.1159-7.3441l-.06-1.4361a8.8827,8.8827,0,0,0,1.1854,1.83c.5731.58,1.3608,2.0615,2.41,2.3425s1.6744-1.2653,1.4132-1.8079-.8045-.5272-1.4506-2.1037a5.9833,5.9833,0,0,0-1.37-2.26c-.5118-.6412-.3915-1.7471-2.6826-3.6977a36.1086,36.1086,0,0,0-4.467-3.1174c-.27-.25-2.849-8.4453-3.7251-11.4669-.8626-2.9749-1.022-7.0924-1.5254-12.2858a3.7951,3.7951,0,0,0-.0383-.3947c-.4909-5.0956-.3132-8.6948-3.4213-12.4625a35.69,35.69,0,0,0-4.1877-8.1531s-.1025-2.3059-1.9983-7.43a45.6374,45.6374,0,0,0-4.3041-8.7112s.1025-5.0219,0-7.2252a15.4363,15.4363,0,0,0-2.9721-8.9674c-2.6134-3.6893-8.7111-5.0216-9.5823-5.2266-.419-.0986-1.9415-.3633-3.842-.8284-1.4126-.9749-9.0728-4.2438-10.48-4.8784a6.8687,6.8687,0,0,1-.5142-.5553,7.7246,7.7246,0,0,1-.263-2.0218,15.6877,15.6877,0,0,1,0-3.8064c.2928-1.171,1.61-2.0492,2.0493-2.9275a30.0092,30.0092,0,0,0,1.0249-4.538,2.34,2.34,0,0,0,1.903-1.0248c.5856-1.0247,1.0247-5.27.732-6.7337s-2.196-1.3175-2.196-1.3175c.1466,3.3669-.5855,7.3193-1.4639,8.93s-2.6349,3.3668-3.074,4.8306-.4391,1.7568-1.3174,1.61a8.6652,8.6652,0,0,0-1.7567.0912v-3.458h-9.25V31.99a9.3085,9.3085,0,0,0-1.8754-.1053c-.8782.1465-.8782-.1464-1.3176-1.61s-2.1956-3.22-3.0739-4.8306-1.61-5.5627-1.4639-8.93c0,0-1.903-.1464-2.1959,1.3175s.1464,5.709.7319,6.7337A2.34,2.34,0,0,0,88.1578,25.59a30.0285,30.0285,0,0,0,1.0247,4.538c.4391.8783,1.7565,1.7565,2.0494,2.9275a15.6824,15.6824,0,0,1,0,3.8064s0,2.1955-.5857,2.4883S81.424,43.303,79.96,44.3277Z"/><path class="cls-4" d="M99.6137,135.846h0m-19.7231-91.47c-1.787.4288-3.1992.6755-3.6.77-.8712.205-6.9688,1.5373-9.5822,5.2266a15.436,15.436,0,0,0-2.972,8.9674c-.1026,2.2033,0,7.2252,0,7.2252a45.6374,45.6374,0,0,0-4.3041,8.7112c-1.896,5.1242-1.9984,7.43-1.9984,7.43a35.9389,35.9389,0,0,0-4.0555,7.777l-.0688.08c-3.4012,3.9134-3.164,7.5989-3.6863,12.9081s-.6731,9.51-1.5493,12.5314S44.6184,127.22,44.3487,127.47a36.1169,36.1169,0,0,0-4.467,3.1174c-2.2911,1.9506-2.1708,3.0565-2.6826,3.6977a5.9846,5.9846,0,0,0-1.37,2.26c-.6461,1.5765-1.1894,1.561-1.4507,2.1037s.364,2.0891,1.4133,1.8079,1.8371-1.7628,2.41-2.3425a8.8827,8.8827,0,0,0,1.1854-1.83l-.06,1.4361s-2.48,5.8433-3.116,7.3441-1.9842,4.1246-1.7523,6.0432,1.8129.4766,1.8129.4766,3.3952-5.4349,4.0784-6.6994,1.1465-1.4052,1.1465-1.4052-2.0773,7.63-2.4395,9.0275-1.1785,2.9831,0,3.9778,2.1753-.9208,2.1753-.9208,2.6355-8.035,3.2066-9.8667,1.1548-.8668,1.1548-.8668-1.5123,8.5006-1.6558,9.2656a3.8566,3.8566,0,0,0,.1351,2.92c.6309.9557,2.0122.2407,2.3346-.3631s2.3688-11.1255,2.7949-11.4553.3945,1.0027.6368,2.4772.3652,5.5757.6663,6.1056,1.794.6276,1.9853-.3925-.2751-7.8525-.3667-9.0623.8755-2.7759,1.9863-5.1072,1.4995-7.0739,1.5225-8.9445,1.394-4.6177,2.5559-8.678a55.9934,55.9934,0,0,1,5.1912-11.7576,114.8548,114.8548,0,0,0,6.0951-13.6575c.4321-1.57.0126-5.5709.0126-5.5709s.0393-.3056.102-.835c.046-.3383.0776-.6221.0989-.8559.0346-.3081.0724-.6507.1116-1.0216.4469-.8954,2.94-5.9035,3.8254-7.9063.9735-2.2034,1.64-4.0481,1.64-4.0481a26.9915,26.9915,0,0,0,2.05,6.4564,50.8,50.8,0,0,1,2.1008,5.4317,10.0168,10.0168,0,0,1,.82,3.5869c.1032,1.0679.3224,2.3441.3615,3.7509a25.44,25.44,0,0,1-1.2926,6.5527c-1.0571,2.4159-.3021,4.6809-.3021,6.4928s-1.9629,16.1564-3.6238,21.5921-.4531,9.3618-.4531,13.59v4.2277l22.0453.453a13.93,13.93,0,0,0,1.6608-5.5866c.0755-2.7935.0755-6.3418.0755-6.3418l.9059-.3021h0l1.9738.3021s0,3.5483.0754,6.3418a13.9292,13.9292,0,0,0,1.6608,5.5866l22.0453-.453v-4.2277c0-4.2278,1.2079-8.1537-.4531-13.59s-3.6238-19.78-3.6238-21.5921.755-4.0769-.3021-6.4928c-1.0189-2.3286-1.336-7.0415-1.3576-7.3788.0794-1.0818.2362-2.07.3189-2.9248a10.0127,10.0127,0,0,1,.82-3.5869,50.7767,50.7767,0,0,1,2.1008-5.4317,26.9837,26.9837,0,0,0,2.05-6.4564s.6663,1.8447,1.64,4.0481c.8216,1.8593,3.0293,6.3089,3.699,7.6536h-.0877c.1849,1.7655.3393,2.9652.3393,2.9652s-.4195,4.0007.0126,5.5709A114.8548,114.8548,0,0,0,136.62,109.838a55.9934,55.9934,0,0,1,5.1912,11.7576c1.1619,4.06,2.5327,6.8073,2.5559,8.678s.4118,6.6135,1.5225,8.9445,2.0781,3.8977,1.9863,5.1072-.5579,8.0423-.3667,9.0623,1.6841.9223,1.9853.3925.4241-4.631.6663-6.1056.2109-2.8069.6368-2.4772,2.4724,10.8513,2.7948,11.4553,1.7038,1.3188,2.3347.3631a3.8566,3.8566,0,0,0,.1351-2.92c-.1435-.765-1.6558-9.2656-1.6558-9.2656s.5837-.9649,1.1548.8668,3.2066,9.8667,3.2066,9.8667.9964,1.9155,2.1753.9208.3627-2.58,0-3.9778-2.44-9.0275-2.44-9.0275.4633.1408,1.1465,1.4052,4.0784,6.6994,4.0784,6.6994,1.5811,1.442,1.8129-.4766-1.1157-4.5424-1.7523-6.0432-3.1159-7.3441-3.1159-7.3441l-.06-1.4361a8.8827,8.8827,0,0,0,1.1854,1.83c.5731.58,1.3608,2.0615,2.41,2.3425s1.6744-1.2653,1.4132-1.8079-.8045-.5272-1.4506-2.1037a5.9833,5.9833,0,0,0-1.37-2.26c-.5118-.6412-.3915-1.7471-2.6826-3.6977a36.1086,36.1086,0,0,0-4.467-3.1174c-.27-.25-2.849-8.4453-3.7251-11.4669-.8626-2.9749-1.022-7.0924-1.5254-12.2858a3.7951,3.7951,0,0,0-.0383-.3947c-.4909-5.0956-.3132-8.6948-3.4213-12.4625a35.69,35.69,0,0,0-4.1877-8.1531s-.1025-2.3059-1.9983-7.43a45.6374,45.6374,0,0,0-4.3041-8.7112s.1025-5.0219,0-7.2252a15.4363,15.4363,0,0,0-2.9721-8.9674c-2.6134-3.6893-8.7111-5.0216-9.5823-5.2266-.419-.0986-1.9415-.3633-3.842-.8284-1.4126-.9749-9.0728-4.2438-10.48-4.8784a6.8687,6.8687,0,0,1-.5142-.5553,7.7246,7.7246,0,0,1-.263-2.0218,15.6877,15.6877,0,0,1,0-3.8064c.2928-1.171,1.61-2.0492,2.0493-2.9275a30.0092,30.0092,0,0,0,1.0249-4.538,2.34,2.34,0,0,0,1.903-1.0248c.5856-1.0247,1.0247-5.27.732-6.7337s-2.196-1.3175-2.196-1.3175c.1466,3.3669-.5855,7.3193-1.4639,8.93s-2.6349,3.3668-3.074,4.8306-.4391,1.7568-1.3174,1.61a8.6652,8.6652,0,0,0-1.7567.0912v-3.458h-9.25V31.99a9.3085,9.3085,0,0,0-1.8754-.1053c-.8782.1465-.8782-.1464-1.3176-1.61s-2.1956-3.22-3.0739-4.8306-1.61-5.5627-1.4639-8.93c0,0-1.903-.1464-2.1959,1.3175s.1464,5.709.7319,6.7337A2.34,2.34,0,0,0,88.1578,25.59a30.0285,30.0285,0,0,0,1.0247,4.538c.4391.8783,1.7565,1.7565,2.0494,2.9275a15.6824,15.6824,0,0,1,0,3.8064s0,2.1955-.5857,2.4883S81.424,43.303,79.96,44.3277Z"/><path class="cls-5" d="M63.736,66.5655s2.9677-.0671,4.75-3.8667,2.6267-9.4478,6.4688-11.4721,5.6188-1.9416,5.8252-1.9416,4.9172,4.7922,5.2064,5.5772l.2891.7849S77.0627,65.8929,63.736,66.5655"/><path class="cls-6" d="M86.6935,55.2408a54.861,54.861,0,0,0,1.1273,5.5853,20.5821,20.5821,0,0,1,.7687,6.2,19.8127,19.8127,0,0,0,3.2795,11.222c2.972,4.6117,4.8166,6.7639,5.2266,9.89"/><path class="cls-6" d="M75.2659,75.9424a47.1667,47.1667,0,0,0,.5134-9.6336"/><path class="cls-6" d="M75.7868,70.8941s1.0688,1.3334,4.707,1.4872a48.7009,48.7009,0,0,0,6.5077-.1538"/><path class="cls-6" d="M80.2652,91.6962s.9974,6.9208,2.8421,9.5854a57.7732,57.7732,0,0,1,3.5869,6.2"/><path class="cls-6" d="M65.0193,94.4663a10.7884,10.7884,0,0,1-3.1257,2.5109C60.51,97.49,58.87,95.6961,58.358,95.03a4.8377,4.8377,0,0,1-1.1275-2.46"/><path class="cls-4" d="M56.3084,93.9537s4.304,8.6084,1.3321,13.5277a49.4032,49.4032,0,0,1-7.1546,8.8634"/><path class="cls-6" d="M100.2261,45.9913s.0284,38.1238.0295,39.5585"/><path class="cls-6" d="M113.85,55.2408a54.8523,54.8523,0,0,1-1.1272,5.5853,20.5821,20.5821,0,0,0-.7687,6.2,19.8135,19.8135,0,0,1-3.28,11.222c-2.972,4.6117-4.8166,6.7639-5.2266,9.89"/><path class="cls-6" d="M124.922,75.9424a47.1667,47.1667,0,0,1-.5134-9.6336"/><path class="cls-6" d="M124.19,70.8787s-1.0688,1.3334-4.7069,1.4871a48.6908,48.6908,0,0,1-6.5077-.1537"/><path class="cls-6" d="M119.7884,91.6962s-.9974,6.9208-2.8422,9.5854a57.7924,57.7924,0,0,0-3.5869,6.2"/><path class="cls-6" d="M135.5246,94.4663a10.7874,10.7874,0,0,0,3.1256,2.5109c1.3835.5124,3.0233-1.2811,3.5358-1.9473a4.8392,4.8392,0,0,0,1.1274-2.46"/><path class="cls-4" d="M144.2352,93.9537s-4.3042,8.6084-1.3321,13.5277,8.2536,13.145,8.9525,12.3879.2092-3.3949.2092-3.3949"/><path class="cls-7" d="M90.6461,39.3509a14.0876,14.0876,0,0,1,3.5132-.2928"/><path class="cls-7" d="M109.3835,39.3509a10.6429,10.6429,0,0,0-3.0741-.2928"/><path class="cls-7" d="M97.1223,113.5746c-.6795-1.057-5.2093-5.0581-8.2292-5.4358s-7.7763.755-7.7763.755"/><polyline class="cls-6" points="100.033 90.365 99.876 105.061 100.232 107.816"/><path class="cls-7" d="M103.1727,113.5746c.6794-1.057,5.2092-5.0581,8.2292-5.4358s7.7763.755,7.7763.755"/><path class="cls-7" d="M96.399,90.8487s-3.91,13.6948-5.7078,15.4925"/><path class="cls-7" d="M57.7945,111.7148S55.64,120.5676,55.64,124.12s1.1409,1.7845,1.1409,1.7845"/><path class="cls-5" d="M98.9117,32.7607a85.1568,85.1568,0,0,1-1.4873,14.0456c-1.3221,5.7839-2.644,4.4621-2.1483,7.1061s3.3052,7.2713,2.4789,14.0466.7436,20.0785.7436,20.0785a33.0383,33.0383,0,0,0-3.7172-7.4368c-2.1483-2.892-5.2881-7.0233-5.04-11.8983s-1.6524-12.89-1.9828-13.9638a3.5837,3.5837,0,0,0-1.4872-2.0658c-.4133-.1653-4.4618-5.949-5.3707-6.4448a3.3483,3.3483,0,0,0-1.4047-.4958S89.6594,40.32,91.56,39.8659s3.9252-.7023,4.5449-1.6112a13.42,13.42,0,0,0,1.2394-4.2141c0-.4957.0554-1.3242.0554-1.3242Z"/><path class="cls-5" d="M87.55,68.6816a9.8869,9.8869,0,0,1-1.259,1.6131c-.5509.4918-1.22.787-.84.99.3924.0825,2.5821.33,2.7473.0825s-.0619-3.1191-.6478-2.6852"/><path class="cls-5" d="M86.1324,57.4441a3.6008,3.6008,0,0,0,.0825,2.6028,30.6709,30.6709,0,0,1,1.1982,5.7012,3.7294,3.7294,0,0,1-.7437,2.6441,27.7065,27.7065,0,0,1-2.6854,2.892c-.2892.2478-3.0152-6.9821-3.5524-7.7257s-.8263-1.0741-.8263-1.0741a56.911,56.911,0,0,0,6.5271-5.04"/><path class="cls-5" d="M82.7461,71.0363s-4.3793.0413-5.1643-.2891-.8262-.4958-.8262-.4958a16.0529,16.0529,0,0,0,.0826-4.2141c-.3306-1.1981-1.033-1.7352-.785-1.9417s3.016-1.322,3.016-1.322a2.76,2.76,0,0,1,1.322,2.4787c.0826,1.9,2.3549,5.784,2.3549,5.784"/><path class="cls-5" d="M88.6131,73.1018a51.1363,51.1363,0,0,1-6.28.4544,14.0067,14.0067,0,0,1-5.2882-.9915,15.1751,15.1751,0,0,1-.3718,3.3052c-.2893.413-.7437,1.57.5783,3.6768s3.3053,5.7426,3.7184,7.891.8267,6.7755,1.3224,8.9239a18.671,18.671,0,0,0,2.6028,5.8251c.8675,1.1982,2.5206,4.1728,3.2642,4.2555s4.3792-6.28,5.7839-10.7416a28.7869,28.7869,0,0,0,1.57-8.4279c0-1.1569-.9917-4.0486-3.5531-6.7754s-3.47-5.6188-3.3472-7.3955"/><path class="cls-5" d="M99.0669,89.6275s-1.1153-.2066-1.4046.124-1.4459,9.2952-2.8507,12.27-2.3961,4.875-2.3961,4.875,3.2224,3.0572,4.214,4.1314a27.9515,27.9515,0,0,1,2.0657,2.6441s.0826-7.767-.248-10.0806.62-13.9638.62-13.9638"/><path class="cls-5" d="M136.4513,66.5655s-2.9677-.0671-4.75-3.8667-2.6267-9.4478-6.4688-11.4721-5.6188-1.9416-5.8253-1.9416-4.9171,4.7922-5.2062,5.5772l-.2892.7849s9.2125,10.2457,22.5392,10.9183"/><path class="cls-5" d="M101.2756,32.7607a85.1568,85.1568,0,0,0,1.4873,14.0456c1.3221,5.7839,2.644,4.4621,2.1483,7.1061s-3.3052,7.2713-2.4789,14.0466-.7436,20.0785-.7436,20.0785a33.0383,33.0383,0,0,1,3.7172-7.4368c2.1483-2.892,5.288-7.0233,5.04-11.8983s1.6523-12.89,1.9828-13.9638a3.5837,3.5837,0,0,1,1.4872-2.0658c.4133-.1653,4.4618-5.949,5.3707-6.4448a3.3483,3.3483,0,0,1,1.4047-.4958s-10.1636-5.4118-12.064-5.8663-3.9252-.7023-4.5449-1.6112a13.4209,13.4209,0,0,1-1.2395-4.2141c0-.4957-.0553-1.3242-.0553-1.3242Z"/><path class="cls-5" d="M112.6376,68.6816a9.89,9.89,0,0,0,1.2591,1.6131c.5508.4918,1.22.787.8406.99-.3925.0825-2.5821.33-2.7474.0825s.0619-3.1191.6477-2.6852"/><path class="cls-5" d="M114.0549,57.4441a3.6014,3.6014,0,0,1-.0825,2.6028,30.6628,30.6628,0,0,0-1.1982,5.7012,3.7289,3.7289,0,0,0,.7437,2.6441,27.6957,27.6957,0,0,0,2.6854,2.892c.2892.2478,3.0152-6.9821,3.5523-7.7257s.8264-1.0741.8264-1.0741a56.911,56.911,0,0,1-6.5271-5.04"/><path class="cls-5" d="M117.4412,71.0363s4.3793.0413,5.1643-.2891.8262-.4958.8262-.4958a16.0529,16.0529,0,0,1-.0826-4.2141c.3306-1.1981,1.0329-1.7352.785-1.9417s-3.0159-1.322-3.0159-1.322a2.76,2.76,0,0,0-1.322,2.4787c-.0827,1.9-2.355,5.784-2.355,5.784"/><path class="cls-5" d="M111.5742,73.1018a51.1363,51.1363,0,0,0,6.28.4544,14.0067,14.0067,0,0,0,5.2882-.9915,15.1751,15.1751,0,0,0,.3718,3.3052c.2893.413.7436,1.57-.5784,3.6768s-3.3052,5.7426-3.7183,7.891-.8267,6.7755-1.3225,8.9239a18.6688,18.6688,0,0,1-2.6027,5.8251c-.8675,1.1982-2.5206,4.1728-3.2642,4.2555s-4.3791-6.28-5.7839-10.7416a28.7869,28.7869,0,0,1-1.57-8.4279c0-1.1569.9917-4.0486,3.5531-6.7754s3.47-5.6188,3.3472-7.3955"/><path class="cls-5" d="M101.12,89.6275s1.1153-.2066,1.4046.124,1.446,9.2952,2.8507,12.27,2.396,4.875,2.396,4.875-3.2223,3.0572-4.2138,4.1314a27.9511,27.9511,0,0,0-2.0659,2.6441s-.0825-7.767.248-10.0806-.62-13.9638-.62-13.9638"/><path class="cls-8" d="M87.5132,12.3943a7.1643,7.1643,0,0,0-.1871,4.0148,3.085,3.085,0,0,1,.6247-.0321c-.1458,3.3553.5835,7.2942,1.4589,8.8989s2.6259,3.3554,3.0635,4.8142.4509,1.8319,1.3129,2.0424c2.5006.6109,11.07.5782,12.8379,0,.8434-.276.8753-.5835,1.3129-2.0424s2.1883-3.2094,3.0636-4.8142,1.6047-5.5436,1.4589-8.8989a3.0849,3.0849,0,0,1,.6247.0321,7.1648,7.1648,0,0,0-.187-4.0148c-.7294-2.3341-1.459-1.236-2.0424-2.5489s-1.8966-5.2519-5.2518-6.4189a12.6611,12.6611,0,0,0-5.3978-.8753,12.6611,12.6611,0,0,0-5.3978.8753c-3.3553,1.167-4.6683,5.1061-5.2517,6.4189S88.2426,10.06,87.5132,12.3943Z"/><path class="cls-9" d="M87.5132,12.3943a7.1643,7.1643,0,0,0-.1871,4.0148,3.085,3.085,0,0,1,.6247-.0321c-.1458,3.3553.5835,7.2942,1.4589,8.8989s2.6259,3.3554,3.0635,4.8142.4509,1.8319,1.3129,2.0424c2.5006.6109,11.07.5782,12.8379,0,.8434-.276.8753-.5835,1.3129-2.0424s2.1883-3.2094,3.0636-4.8142,1.6047-5.5436,1.4589-8.8989a3.0849,3.0849,0,0,1,.6247.0321,7.1648,7.1648,0,0,0-.187-4.0148c-.7294-2.3341-1.459-1.236-2.0424-2.5489s-1.8966-5.2519-5.2518-6.4189a12.6611,12.6611,0,0,0-5.3978-.8753,12.6611,12.6611,0,0,0-5.3978.8753c-3.3553,1.167-4.6683,5.1061-5.2517,6.4189S88.2426,10.06,87.5132,12.3943Z"/><path class="cls-10" d="M63.7361,66.5651s3.2745-4.6069,4.7957-6.2762"/><path class="cls-10" d="M136.4146,66.5633a62.4327,62.4327,0,0,0-3.8473-5.84"/><path class="cls-7" d="M103.2716,90.15s.483,11.0155,4.1934,15.8419"/></g></svg>