<svg id="Layer_1" data-name="Layer 1" xmlns="http://www.w3.org/2000/svg" xmlns:xlink="http://www.w3.org/1999/xlink" width="200" height="112" viewBox="0 0 200 112"><defs><style>.cls-1,.cls-4,.cls-5{fill:none;}.cls-2{clip-path:url(#clip-path);}.cls-3{fill:#fff;}.cls-3,.cls-6{fill-rule:evenodd;}.cls-4,.cls-5{stroke:#070836;stroke-linecap:round;stroke-miterlimit:2.6131;}.cls-4{stroke-width:0.8378px;}.cls-5{stroke-width:0.8377px;}.cls-6{fill:#2478ff;}</style><clipPath id="clip-path"><rect class="cls-1" x="8.1694" y="-115.4147" width="183.6612" height="230.4"/></clipPath></defs><g class="cls-2"><path class="cls-3" d="M68.45-103.2708a13.76,13.76,0,0,1-.5617,1.57c-1.6386,3.7451-.4682,7.2559-.4682,10.0645s-3.0428,25.0439-5.6172,33.47S61.1-43.6545,61.1-37.101v6.5535a73.1094,73.1094,0,0,0,0,12.7279c.6207,6.8255,3.8781,15.6682,3.8781,19.0809s.9309,8.0668.776,11.6347a47.1773,47.1773,0,0,0,.31,6.6705c0,.7756-.9307,4.4986-2.7925,15.2027s.4764,15.3257,1.3961,19.236S68.39,69.2807,68.8021,73.4028c0,0,1.07,5.74,1.07,6.0806s-.0486,4.5726-.535,5.8373-.292,3.0159-.73,3.6482S67.44,90.331,66.6616,91.2553s-4.9129,5.1562-5.594,5.6427A33.346,33.346,0,0,1,57.5652,99.33a5.3386,5.3386,0,0,0-2.2862,1.4107c-.438.6323-.0973.6324.9728,1.3135s3.8431.6324,6.9562.6324,5.2536.1459,6.81-.7784,4.7185-.681,7.1021-.681,3.3565-.8757,3.6482-2.6755-1.1672-4.3779-1.3133-6.5183.2918-2.7239.4866-4.767-.73-3.9889-.7785-4.9618.0486-8.3667.0486-8.3667c1.06-4.9863,3.9051-19.59,4.2267-20.9414s3.8784-2.792,4.5763-9.6952-4.0331-18.6151-3.18-19.8564,1.9391-4.8864,2.0944-8.0666,5.2742-17.53,7.4462-22.4941,1.8612-7.1359,1.5511-9.3852c-1.9693-14.273,1.6805-13.1217,1.92-22.0044.1169-4.33.1169-9.83.1169-9.83l1.4044-.4682h0l3.06.4682s0,5.5.1169,9.83c.24,8.8827,3.89,7.7314,1.92,22.0044-.31,2.2493-.6209,4.4211,1.5511,9.3852s7.2909,19.314,7.4464,22.4941,1.2409,6.8256,2.0941,8.0666-3.8779,12.9531-3.18,19.8564,4.2547,8.3434,4.5763,9.6952S120.12,68.9517,121.18,73.938c0,0,.0975,7.3938.0486,8.3667s-.9727,2.9187-.7782,4.9618.6322,2.6265.4863,4.767-1.6051,4.7185-1.3133,6.5183,1.2646,2.6755,3.6482,2.6755,5.5455-.2432,7.1021.681,3.6968.7784,6.81.7784,5.8861.0485,6.9562-.6324,1.4108-.6812.9731-1.3135a5.3394,5.3394,0,0,0-2.2865-1.4107,33.3353,33.3353,0,0,1-3.5023-2.4321c-.6812-.4865-4.8157-4.7185-5.5941-5.6427s-1.508-1.6541-1.9459-2.2864-.2432-2.3834-.73-3.6482-.5351-5.4968-.5351-5.8373,1.07-6.0806,1.07-6.0806c.4122-4.1221,3.2146-15.4873,4.1343-19.3976s3.2577-8.532,1.3962-19.236-2.7925-14.4271-2.7925-15.2027a47.2133,47.2133,0,0,0,.31-6.6705c-.1552-3.5679.7757-8.2218.7757-11.6347s3.2577-12.2554,3.8781-19.0809a73.1094,73.1094,0,0,0,0-12.7279V-37.101c0-6.5535,1.8723-12.6391-.7023-21.0652s-5.6173-30.6612-5.6173-33.47,1.17-6.3194-.4682-10.0645a13.7747,13.7747,0,0,1-.5614-1.57Z"/><path class="cls-4" d="M68.45-103.2708a13.76,13.76,0,0,1-.5617,1.57c-1.6386,3.7451-.4682,7.2559-.4682,10.0645s-3.0428,25.0439-5.6172,33.47S61.1-43.6545,61.1-37.101v6.5535a73.1094,73.1094,0,0,0,0,12.7279c.6207,6.8255,3.8781,15.6682,3.8781,19.0809s.9309,8.0668.776,11.6347a47.1773,47.1773,0,0,0,.31,6.6705c0,.7756-.9307,4.4986-2.7925,15.2027s.4764,15.3257,1.3961,19.236S68.39,69.2807,68.8021,73.4028c0,0,1.07,5.74,1.07,6.0806s-.0486,4.5726-.535,5.8373-.292,3.0159-.73,3.6482S67.44,90.331,66.6616,91.2553s-4.9129,5.1562-5.594,5.6427A33.346,33.346,0,0,1,57.5652,99.33a5.3386,5.3386,0,0,0-2.2862,1.4107c-.438.6323-.0973.6324.9728,1.3135s3.8431.6324,6.9562.6324,5.2536.1459,6.81-.7784,4.7185-.681,7.1021-.681,3.3565-.8757,3.6482-2.6755-1.1672-4.3779-1.3133-6.5183.2918-2.7239.4866-4.767-.73-3.9889-.7785-4.9618.0486-8.3667.0486-8.3667c1.06-4.9863,3.9051-19.59,4.2267-20.9414s3.8784-2.792,4.5763-9.6952-4.0331-18.6151-3.18-19.8564,1.9391-4.8864,2.0944-8.0666,5.2742-17.53,7.4462-22.4941,1.8612-7.1359,1.5511-9.3852c-1.9693-14.273,1.6805-13.1217,1.92-22.0044.1169-4.33.1169-9.83.1169-9.83l1.4044-.4682h0l3.06.4682s0,5.5.1169,9.83c.24,8.8827,3.89,7.7314,1.92,22.0044-.31,2.2493-.6209,4.4211,1.5511,9.3852s7.2909,19.314,7.4464,22.4941,1.2409,6.8256,2.0941,8.0666-3.8779,12.9531-3.18,19.8564,4.2547,8.3434,4.5763,9.6952S120.12,68.9517,121.18,73.938c0,0,.0975,7.3938.0486,8.3667s-.9727,2.9187-.7782,4.9618.6322,2.6265.4863,4.767-1.6051,4.7185-1.3133,6.5183,1.2646,2.6755,3.6482,2.6755,5.5455-.2432,7.1021.681,3.6968.7784,6.81.7784,5.8861.0485,6.9562-.6324,1.4108-.6812.9731-1.3135a5.3394,5.3394,0,0,0-2.2865-1.4107,33.3353,33.3353,0,0,1-3.5023-2.4321c-.6812-.4865-4.8157-4.7185-5.5941-5.6427s-1.508-1.6541-1.9459-2.2864-.2432-2.3834-.73-3.6482-.5351-5.4968-.5351-5.8373,1.07-6.0806,1.07-6.0806c.4122-4.1221,3.2146-15.4873,4.1343-19.3976s3.2577-8.532,1.3962-19.236-2.7925-14.4271-2.7925-15.2027a47.2133,47.2133,0,0,0,.31-6.6705c-.1552-3.5679.7757-8.2218.7757-11.6347s3.2577-12.2554,3.8781-19.0809a73.1094,73.1094,0,0,0,0-12.7279V-37.101c0-6.5535,1.8723-12.6391-.7023-21.0652s-5.6173-30.6612-5.6173-33.47,1.17-6.3194-.4682-10.0645a13.7747,13.7747,0,0,1-.5614-1.57Z"/><path class="cls-5" d="M78.6292-24.9549S76.7675-12.2342,77.233-3.7022a114.2346,114.2346,0,0,0,3.2578,19.0807"/><path class="cls-5" d="M84.7427,24.2339s-1.77-4.0462-2.3131-5.132"/><path class="cls-5" d="M66.0642,19.5667c.62-1.0078,5.0409-8.6092,6.282-10.4706"/><path class="cls-5" d="M83.5881,52.6117s-.77,3.8765-3.5626.6187"/><path class="cls-5" d="M77.3882,48.4215s-2.7144-18.8483-.62-26.3722"/><path class="cls-5" d="M65.6229,50.9147s6.05,18.228,6.4379,24.0451"/><path class="cls-6" d="M81.8872,20.4977s2.56,7.9117,3.49,12.41,2.1716,7.9117.6978,12.41-2.4822,5.1193-3.3353,5.4683-3.6068.62-3.9171-.1164a7.5833,7.5833,0,0,1-.31-2.5209c0-.543-.7758-12.6822-.0777-16.0173a43.5094,43.5094,0,0,0,.892-7.9115c0-1.3185,2.0943-5.1578,2.56-3.7228"/><path class="cls-6" d="M71.7644,13.5161s.7754,4.6539,1.7838,6.1277S75.1,21.2726,75.1,21.6605s-.698,10.2384-.2326,15.5129.698,6.67.349,8.92a8.0067,8.0067,0,0,1-3.8394,5.2745c-1.59.8145-4.9644.6207-5.4684-.0774s-1.3962-1.2024-1.8617-5.8563A53.56,53.56,0,0,1,65.52,28.7576,63.5774,63.5774,0,0,0,67.3816,19.14s3.1025-4.6928,3.6067-5.701.97-.892.7761.0773"/><path class="cls-4" d="M68.6075,88.9689a4.1522,4.1522,0,0,0,.8745,2.14"/><path class="cls-4" d="M71.1358,92.4227s2.7239,2.189,3.1618,3.6"/><path class="cls-4" d="M72.4392,77.2732s1.9459,14.3012,2.2377,17.1227"/><path class="cls-4" d="M71.6607,81.0674s1.6825,8.2377,1.2646,10.41"/><path class="cls-5" d="M121.7622-24.9549s1.8618,12.7207,1.3962,21.2527A114.2136,114.2136,0,0,1,119.9,15.3785"/><path class="cls-5" d="M115.6487,24.2339s1.77-4.0462,2.3131-5.132"/><path class="cls-5" d="M134.3272,19.5667c-.62-1.0078-5.0409-8.6092-6.282-10.4706"/><path class="cls-5" d="M116.803,52.6117s.7706,3.8765,3.5629.6187"/><path class="cls-5" d="M123.0031,48.4215s2.7144-18.8483.62-26.3722"/><path class="cls-5" d="M134.7683,50.9147s-6.05,18.228-6.438,24.0451"/><path class="cls-6" d="M118.5037,20.4977s-2.56,7.9117-3.49,12.41-2.1717,7.9117-.698,12.41,2.4822,5.1193,3.3355,5.4683,3.6067.62,3.917-.1164a7.5856,7.5856,0,0,0,.31-2.5209c0-.543.7758-12.6822.0777-16.0173a43.5161,43.5161,0,0,1-.8919-7.9115c0-1.3185-2.0943-5.1578-2.56-3.7228"/><path class="cls-6" d="M128.6265,13.5161s-.7753,4.6539-1.7838,6.1277-1.5514,1.6288-1.5514,2.0167.698,10.2384.2326,15.5129-.6978,6.67-.349,8.92a8.0065,8.0065,0,0,0,3.84,5.2745c1.59.8145,4.9644.6207,5.4684-.0774s1.3961-1.2024,1.8617-5.8563a53.5573,53.5573,0,0,0-1.4738-16.6764,63.5913,63.5913,0,0,1-1.8615-9.6178s-3.1025-4.6928-3.6067-5.701-.97-.892-.776.0773"/><path class="cls-4" d="M131.7839,88.9689a4.15,4.15,0,0,1-.8742,2.14"/><path class="cls-4" d="M129.2556,92.4227s-2.7239,2.189-3.1618,3.6"/><path class="cls-4" d="M127.9522,77.2732s-1.9459,14.3012-2.2377,17.1227"/><path class="cls-4" d="M128.731,81.0674s-1.6828,8.2377-1.2649,10.41"/><path class="cls-4" d="M91.06-26.9s-4.4431,17.6789-6,29.548,1.2414,16.8789,1.2414,16.8789"/><path class="cls-4" d="M109.5652-26.9s4.4431,17.6789,6,29.548-1.2414,16.8789-1.2414,16.8789"/></g></svg>