<svg id="Layer_1" data-name="Layer 1" xmlns="http://www.w3.org/2000/svg" width="200" height="112" viewBox="0 0 200 112"><defs><style>.cls-1,.cls-4{fill:#fff;}.cls-1,.cls-2,.cls-3,.cls-4{fill-rule:evenodd;}.cls-2{fill:#2478ff;}.cls-3{fill:none;}.cls-3,.cls-4{stroke:#070836;stroke-linecap:round;stroke-miterlimit:2.6131;stroke-width:0.8px;}</style></defs><path class="cls-1" d="M118.1458-11.1672c.0221,3.9525-1.2294,6.3083-.1251,12.9341,0,0-2.2086,4.9325-2.3558,8.319a143.7939,143.7939,0,0,1-1.8405,16.0491c-.9259,4.89-4.0263,15.226-4.6635,32.7909.688,11.0864,2.89,18.1023,4.9545,23.2078A64.8355,64.8355,0,0,0,115.2231,94.38a25.3941,25.3941,0,0,1-.2944,7.1411c-.3681,1.3987-1.8405,6.11-1.8405,8.4662v10.454l18.5521-.2208,2.2086-.8835a62.8431,62.8431,0,0,0-1.2515-18.11A120.8884,120.8884,0,0,1,133.8489,87.46a137.73,137.73,0,0,1,4.0491-17.9632c.7362-7.6564,2.0613-17.0061,1.7669-31.6564a1.9207,1.9207,0,0,1,.2944-2.2086,6.22,6.22,0,0,1,.589-1.4724c1.4776-.3352.4551-.4625,1.62,0,.9543.379.923.8185,1.196.821.9627.0088,6.6864-30.1021-.607-43.3731C136.0283-20.6357,122.0611-14.84,118.1458-11.1672Z"/><path class="cls-1" d="M165.6664-11.53c-.0221,3.9525.4279,6.0824.1251,12.9341,0,0,1.4439,5.0011,2.3558,8.319a143.7939,143.7939,0,0,0,1.84,16.0491,261.2939,261.2939,0,0,1,4.6635,32.7909,74.0356,74.0356,0,0,1-4.9545,23.2078,64.8355,64.8355,0,0,1-1.1077,12.2467,25.3941,25.3941,0,0,0,.2944,7.1411,67.6121,67.6121,0,0,1,1.7016,10.1545c0,2.3558.1389,8.7657.1389,8.7657l-18.5521-.2209-2.2086-.8834a62.8431,62.8431,0,0,1,1.2515-18.11c-.4334-3.2443-.5689-8.0785-1.4273-13.8455-1.6564-6.9939-3.092-11.6687-3.8733-17.8846a182.68,182.68,0,0,1-1.7669-31.6564c.589-1.4724-.4283-2.0209-.3966-1.9927a15.2362,15.2362,0,0,0-.8466-1.362c-1.4776-.3352-.6994-.4049-1.26-.3263-1.0169.1426-.923.8185-1.196.821-.9627.0088-6.6864-30.1022.607-43.3731C147.7839-20.9989,161.7511-15.2027,165.6664-11.53Z"/><path class="cls-2" d="M114.4453,82.6471a7.4669,7.4669,0,0,1-1.58-3.6049,16.9977,16.9977,0,0,1-.9823-3.1976c-2.297-7.6859-3.3108-12.025-2.9154-19.3914.7715-14.3736,2.6577-21,3.0921-22.13C115.638,15.02,115.3288,6.23,117.5815,3.05a92.2352,92.2352,0,0,0,10.2479,7.5534s4.0638,13.87,12.3239,23.9411c-1.5018,2.0761-.4027,6.2723-.2945,10.6012-.4564,17.7129-1.6049,22.8368-3.6515,32.8638-1.0036,2.2845-2.2822,12.589-7.6712,9.85C126.0625,86.1367,124.1631,78.9808,114.4453,82.6471Z"/><path class="cls-2" d="M169.0282,82.47a7.4669,7.4669,0,0,0,1.58-3.6049,16.9955,16.9955,0,0,0,.9823-3.1976c2.297-7.6859,3.3108-12.025,2.9154-19.3914-.7715-14.3736-2.6576-21-3.092-22.13-3.578-19.3031-3.2688-28.0933-5.5215-31.2737a92.2352,92.2352,0,0,1-10.2479,7.5534S151.58,24.2961,143.32,34.3673c1.5018,2.0761.4027,6.2723.2945,10.6012.4564,17.7129,1.6049,22.8369,3.6515,32.8638,1.0036,2.2845,2.2822,12.589,7.6712,9.85C157.411,85.96,159.31,78.8041,169.0282,82.47Z"/><path class="cls-3" d="M141.7991,33.8071s1.3908.3476,1.5648,1.1734a3.0394,3.0394,0,0,0,.869,1.4777c.3477.478-1.1734,6.1279.2172,21.4256a189.8126,189.8126,0,0,0,5.3889,29.9c.5213,2.26.7821,9.3.9559,10.43a6.1679,6.1679,0,0,1,0,3.8244c-.6084,2.0861-1.5643,12.3425-1.2167,16.9494.7,9.2727,4.2319,20.2354,4.7651,30.0929.3368,6.231-.36,9.1781-.7526,10.6939s.1062,2.2736.3224,3.7892-.0736,2.484-.9206,4.6315-1.5716,3.1154-.4,4.6732,1.957,1.4733,4.3953,1.3892,3.7458-.1684,4.644.3368.409.884,3.5408.884,1.6988-.0839,3.343.2108,1.7226-.8843,1.7226-.8843.58.9687,1.4079.9263a1.1723,1.1723,0,0,0,1.06-.5474s.0387.1685.65.0844a1.0064,1.0064,0,0,0,.8-.59s-.0129.4212.69.2106a1.0681,1.0681,0,0,0,.8041-.7156s.5419-.6739.2039-1.0108-1.22-1.3894-1.9991-1.5155a11.4365,11.4365,0,0,1-2.8868-.926,36.3722,36.3722,0,0,1-5.6661-5.4735c-1.6772-2.1051-2.2612-2.9472-2.4737-3.1155s.2328-1.9788-.0493-2.7369.0564-1.8943.0966-4.7156,2.2055-12.7568,4.3145-19.3243a45.6121,45.6121,0,0,0,1.51-7.0676s3.1291-12.5169,1.2169-21.5565-1.6513-11.56-1.13-14.6892a69.634,69.634,0,0,0,.6954-9.9088c-.087-1.043,5.1283-11.6474,4.9545-23.2078S171.83,36.4136,170.7,31.0247s-2.3468-15.2976-2.6075-18.7745a31.6532,31.6532,0,0,0-1.7383-8.2575,5.0664,5.0664,0,0,1-.6086-2.7813c0-1.3036.4348-6.5189,0-9.3-.1156-.74-.2128-1.8488-.293-3.0782H141.836l0,.5023-.0734-.5023H118.1458c-.08,1.2294-.1773,2.3384-.2931,3.0782-.4346,2.7815,0,7.9968,0,9.3a5.0678,5.0678,0,0,1-.6084,2.7813A31.6532,31.6532,0,0,0,115.506,12.25c-.2608,3.4769-1.4777,13.3856-2.6075,18.7745s-3.5638,16.3408-3.7376,27.9012,5.0415,22.1648,4.9545,23.2078a69.619,69.619,0,0,0,.6954,9.9088c.5216,3.1291.7824,5.65-1.13,14.6892s1.2168,21.5565,1.2168,21.5565a45.623,45.623,0,0,0,1.51,7.0676c2.109,6.5675,4.2741,16.5037,4.3145,19.3243s.3784,3.958.0966,4.7156.1632,2.5686-.0494,2.7369-.7965,1.01-2.4736,3.1155a36.3722,36.3722,0,0,1-5.6661,5.4735,11.4377,11.4377,0,0,1-2.8868.926c-.7792.1261-1.6612,1.1789-1.9991,1.5155s.2039,1.0108.2039,1.0108a1.0681,1.0681,0,0,0,.8041.7156c.7026.2106.69-.2106.69-.2106a1.0064,1.0064,0,0,0,.8.59c.6115.0841.65-.0844.65-.0844a1.1723,1.1723,0,0,0,1.06.5474c.8276.0424,1.4079-.9263,1.4079-.9263s.0785,1.179,1.7225.8843.2115-.2108,3.3429-.2108,2.6425-.3786,3.541-.884,2.2056-.4208,4.644-.3368,3.2239.1685,4.3953-1.3892.4469-2.5264-.4-4.6732-1.1365-3.116-.92-4.6315.7154-2.2736.3223-3.7892-1.0894-4.4629-.7525-10.6939c.5331-9.8575,4.0652-20.82,4.7651-30.0929.3476-4.6069-.6083-14.8633-1.2169-16.9494a6.1709,6.1709,0,0,1,0-3.8244c.174-1.13.4348-8.17.9561-10.43a189.8126,189.8126,0,0,0,5.3889-29.9c1.3906-15.2977-.1305-20.9476.2172-21.4256a3.0394,3.0394,0,0,0,.869-1.4777C140.4083,34.1547,141.7991,33.8071,141.7991,33.8071Z"/><path class="cls-3" d="M115.17,95.1253a25.6031,25.6031,0,0,0,1.8576,5.3046c1.0431,1.8252,1.3908,8.3442,1.8254,11.6471s1.6514,16.2112,1.6514,16.2112.652,18.8579.652,19.9011-1.5326-.455-1.5326-.455"/><path class="cls-3" d="M133.0256,103.0671s-6.9582,6.0544-7.48,14.225,0,10.9961,0,10.9961,2.4776,16.12,2.9556,16.8589,1.1926-.6929,1.1926-.6929"/><path class="cls-3" d="M128.6391,48.8s-.2249,9.691-1.0072,11.69-4.6068,5.7367-5.3022,10.0826.434,13.1249,1.5642,15.1676"/><path class="cls-3" d="M117.0277,80.6551s.1738-3.39-.6954-4.9543-3.6506-3.9986-4.0852-12.43-.0868-12.7771,1.9123-19.383S117.81,33.1972,117.81,33.1972"/><path class="cls-3" d="M140.4985,34.5033a51.1849,51.1849,0,0,1-8.956-14.1706c-3.5635-8.5183-2.5206-9.3874-4.6935-10.7782s-8.1313-4.612-9.1071-6.9126"/><path class="cls-3" d="M128.4134,21.7236s6.3735,36.3676,5.7369,51.9777.29,11.3606.29,11.3606"/><path class="cls-3" d="M134.4979,30.9369s4.5924,19.4854-.4853,34.6016"/><path class="cls-3" d="M140.3211-5.57a3.6551,3.6551,0,0,0-2.3468-1.3038c-1.3908-.087-6.6928.4346-7.2143.7822s-1.13,1.13-1.2169,2.9553,1.4777,5.5628,1.8253,7.2143a27.9544,27.9544,0,0,1,.9562,6.8666c0,3.2161,3.9981,11.3,5.0413,14.4287s1.9121,4.52,2.6944,4.52"/><path class="cls-3" d="M117.7777-.6965s6.463,7.0348,8.5492,7.3826,3.7375-.6086,3.5637-1.8254-1.7383-4.6936-1.9122-5.9974.1739-2.4337-.4346-2.9553"/><path class="cls-3" d="M168.4283,95.1253a25.6031,25.6031,0,0,1-1.8576,5.3046c-1.0431,1.8252-1.3908,8.3442-1.8254,11.6471s-1.6514,16.2112-1.6514,16.2112-.6521,18.8579-.6521,19.9011,1.5325-.455,1.5325-.455"/><path class="cls-3" d="M150.5728,103.0671s6.9582,6.0544,7.48,14.225,0,10.9961,0,10.9961-2.4776,16.12-2.9556,16.8589-1.1925-.6929-1.1925-.6929"/><path class="cls-3" d="M154.9593,48.8s.2249,9.691,1.0072,11.69,4.6068,5.7367,5.3022,10.0826-.434,13.1249-1.5642,15.1676"/><path class="cls-3" d="M166.5707,80.6551s-.1739-3.39.6954-4.9543,3.6506-3.9986,4.0852-12.43.0868-12.7771-1.9123-19.383-3.6506-10.6909-3.6506-10.6909"/><path class="cls-3" d="M143.1,34.5033a51.1849,51.1849,0,0,0,8.956-14.1706c3.5635-8.5183,2.5206-9.3874,4.6935-10.7782s8.1313-4.612,9.1069-6.9126"/><path class="cls-3" d="M155.1849,21.7236s-6.3734,36.3676-5.7368,51.9777-.29,11.3606-.29,11.3606"/><path class="cls-3" d="M149.1,30.9369s-4.5923,19.4854.4853,34.6016"/><path class="cls-3" d="M143.2773-5.57a3.6551,3.6551,0,0,1,2.3468-1.3038c1.3908-.087,6.6927.4346,7.2143.7822s1.13,1.13,1.2169,2.9553-1.4777,5.5628-1.8254,7.2143a27.96,27.96,0,0,0-.9561,6.8666c0,3.2161-3.9981,11.3-5.0413,14.4287s-1.9121,4.52-2.6945,4.52"/><path class="cls-3" d="M165.8207-.6965s-6.463,7.0348-8.5492,7.3826-3.7375-.6086-3.5637-1.8254S155.4461.1671,155.62-1.1367s-.1739-2.4337.4346-2.9553"/><path class="cls-3" d="M141.84-3.8251s-.4171,31.9169-.3128,33.1685"/><path class="cls-3" d="M117.0277,100.43s1.9995,2.6936,3.39,2.9544,4.8676-1.13,6.3451-3.4768a11.2791,11.2791,0,0,0,1.5645-5.0414l-.491-7.0078"/><path class="cls-3" d="M166.5707,100.43s-1.9995,2.6936-3.39,2.9544-4.8675-1.13-6.3449-3.4768a11.2776,11.2776,0,0,1-1.5645-5.0414l.491-7.0078"/><path class="cls-4" d="M33.6459-11.1672s-.1738,6.519-.1738,7.5621.1738,2.5206.1738,2.5206-2.4336,5.9105-2.52,10.778.1738,7.5621-.8692,10.9519S26.6925,37.3339,25.91,46.8081s-.1737,17.3839,1.217,22.9467,2.8683,6.5187,3.0421,11.1255,1.13,11.2129.5216,15.7326a109.3983,109.3983,0,0,0-.9562,19.1222c.4346,5.9974,2.9552,28.0747,2.9552,34.42s.1739,6.8668-.0869,8.6051a22.8174,22.8174,0,0,0-.1739,3.7375s-2.9554,5.3023-3.8244,6.3451-2.8245,2.0862-3.5636,2.738a4.1405,4.1405,0,0,0-1,2.5207c-.0869.652.6518,1.0866,1.521,1.0866s6.128-.3477,6.91.0434a9.9424,9.9424,0,0,0,5.0847.3041c1.6079-.4344,1.9557-1.6513,3.0857-2.26s3.6073-.3912,4.346-2.0426-.13-4.5631-.6084-5.4758a6.4614,6.4614,0,0,1-.565-3.26c0-1.4776.7388-3.3462.565-5.6932s-1.0431-3.2162-.6954-6.1715,2.3467-14.6022,2.6075-17.7314a24.1742,24.1742,0,0,1,1.2169-6.345c.7823-2.7814,2.8682-6.0843,2.086-16.167s-1.2165-17.7316-.6952-21.0346,3.9982-20.687,4.6935-24.772,2.5644-15.7756,1.9995-20.8169-.8692-7.8226-.1738-9.3439a6.2728,6.2728,0,0,1,2.2164-2.434,6.2727,6.2727,0,0,1,2.2165,2.434c.6954,1.5213.3911,4.3024-.1738,9.3439s1.304,16.7318,1.9994,20.8169S65.85,86.052,66.3717,89.3549s.087,10.952-.6952,21.0346,1.3038,13.3856,2.086,16.167a24.17,24.17,0,0,1,1.217,6.345c.2608,3.1292,2.26,14.7762,2.6075,17.7314s-.5216,3.8245-.6954,6.1715.5649,4.2156.5649,5.6932a6.4615,6.4615,0,0,1-.5649,3.26c-.4781.9127-1.3472,3.8244-.6084,5.4758s3.2159,1.4341,4.3459,2.0426,1.4778,1.8254,3.0858,2.26a9.9429,9.9429,0,0,0,5.0848-.3041c.7823-.3911,6.0409-.0434,6.91-.0434s1.608-.4346,1.5211-1.0866a4.1411,4.1411,0,0,0-1-2.5207c-.739-.6518-2.6945-1.6951-3.5635-2.738s-3.8245-6.3451-3.8245-6.3451a22.8234,22.8234,0,0,0-.174-3.7375c-.2606-1.7383-.0868-2.26-.0868-8.6051s2.5206-28.4225,2.9552-34.42a109.3989,109.3989,0,0,0-.9561-19.1222c-.6085-4.52.3476-11.1258.5215-15.7326s1.6515-5.5628,3.0421-11.1255,1.9993-13.4725,1.217-22.9467-3.303-22.7728-4.346-26.1627-.7824-6.0843-.8693-10.9519-2.5206-10.778-2.5206-10.778S81.8-2.562,81.8-3.6051s-.1738-7.5621-.1738-7.5621C65.4339-11.3449,49.8383-11.3591,33.6459-11.1672Z"/><path class="cls-2" d="M66.8294,92.0851c-.4493-2.6689-1.6491-9.7178-2.65-14.37-.8245-4.1227-3.1215-14.7829-3.416-18.67-1.06-4.8294-1.5844-11.6029-1.2368-13.4282s.48-9.33,1.0013-9.8945C79.492,44.0262,79.492,27.4765,79.7865,22.5882c3.8282,5.4773,7.3367,20.22,7.5975,28.5644s-3.2335,22.51-2.8859,25.0307.081,14.7124.0589,15.6662-4.535-6.4785-4.535-6.4785a40.3013,40.3013,0,0,1-3.1214-6.4785,61.5054,61.5054,0,0,1-1.8258-8.5988S72.8088,84.5989,72.1889,85.96s-1.192,3.9939-2.0613,5.1239"/><path class="cls-2" d="M48.36,92.0047c.4493-2.6689,1.649-9.7178,2.65-14.3706.8245-4.1227,3.1214-14.7828,3.4159-18.67,1.06-4.8295,1.5845-11.603,1.2368-13.4283s-.48-9.33-1.0012-9.8944c-18.9644,8.3043-18.9644-8.2454-19.2589-13.1338-3.8282,5.4773-7.3368,20.22-7.5976,28.5644s3.2336,22.51,2.8859,25.0307-.081,14.7125-.0589,15.6663,4.535-6.4786,4.535-6.4786a40.2977,40.2977,0,0,0,3.1215-6.4785,61.5024,61.5024,0,0,0,1.8258-8.5988S42.381,84.5184,43.0008,85.88s1.1921,3.9939,2.0614,5.1239"/><path class="cls-3" d="M55.15,35.3023s-5.0242,3.0495-10.463,2.4877c-4.0322-.4167-7.4315-4.65-8.2139-7.084s-1.13-12.4293.087-15.1239"/><path class="cls-3" d="M42.9928,87.8989s-1.3038,2.086-1.4777,6.6929-.3477,21.3821,1.2169,26.771"/><path class="cls-3" d="M38.7337,78.1637a67.89,67.89,0,0,0,1.3477-13.4726c-.1739-6.2582-.3477-15.6454.9561-19.6437a32.7263,32.7263,0,0,1,2.4334-5.9109"/><path class="cls-3" d="M40.0687,67.2084s1.1427,9.4773,2.1857,14.171,2.6072,9.3441,2.6072,9.3441"/><path class="cls-3" d="M47.64,52.349s-1.213,13.6457-1.3,17.818S44.7437,83.5854,45.992,89.55"/><path class="cls-3" d="M31.9986,30.88a110.7545,110.7545,0,0,1,1.7315,14.97"/><path class="cls-3" d="M30.6081,34.7041s-4.9657,16.7577-1.3908,30.9432"/><path class="cls-3" d="M30.3334,83.647s1.0569-10.6987.3615-12.6978A12.3182,12.3182,0,0,1,30,67.2987"/><path class="cls-3" d="M36.1381,84.832s3.7274,3.719,4.3793,5.718"/><path class="cls-3" d="M43.5609,5.4112S37.34,9.8437,36.56,15.5821"/><path class="cls-3" d="M60.1225,35.3023s6.5506,2.9638,10.463,2.4877c3.503-.4263,7.4316-4.65,8.2139-7.084s1.13-12.4293-.0869-15.1239"/><path class="cls-3" d="M72.28,87.8989s1.3038,2.086,1.4777,6.6929.3477,21.3821-1.2169,26.771"/><path class="cls-3" d="M76.5386,78.1637A67.885,67.885,0,0,1,75.191,64.6911c.1738-6.2582.3476-15.6454-.9562-19.6437a32.7206,32.7206,0,0,0-2.4335-5.9109"/><path class="cls-3" d="M75.2036,67.2084s-1.1426,9.4773-2.1858,14.171-2.6072,9.3441-2.6072,9.3441"/><path class="cls-3" d="M67.6327,52.349s1.213,13.6457,1.3,17.818,1.596,13.4184.3478,19.3829"/><path class="cls-3" d="M83.2737,30.88a110.7354,110.7354,0,0,0-1.7315,14.97"/><path class="cls-3" d="M84.6641,34.7041S89.63,51.4618,86.0549,65.6473"/><path class="cls-3" d="M84.9389,83.647s-1.0569-10.6987-.3615-12.6978a12.3182,12.3182,0,0,0,.6954-3.6505"/><path class="cls-3" d="M79.1343,84.832s-3.7276,3.719-4.3794,5.718"/><path class="cls-3" d="M71.7114,5.4112s6.2206,4.4325,7.0011,10.1709"/><path class="cls-3" d="M36.56,15.5821s-3.1975-10.74.3863-15.8531"/><path class="cls-3" d="M57.6361-11.3058S57.73,9.8155,57.73,12.6155"/><path class="cls-3" d="M78.7124,15.5821S81.91,4.8425,78.3261-.271"/><path class="cls-3" d="M58.6864,17.7234s-1.56,8.7895-1.05,14.2647"/><path class="cls-3" d="M56.1063,17.2433s1.74,10.41,1.53,14.7448"/></svg>