<svg id="Layer_1" data-name="Layer 1" xmlns="http://www.w3.org/2000/svg" xmlns:xlink="http://www.w3.org/1999/xlink" width="200" height="112" viewBox="0 0 200 112"><defs><style>.cls-1,.cls-4,.cls-7{fill:none;}.cls-2{clip-path:url(#clip-path);}.cls-3{fill:#0f2752;}.cls-3,.cls-5,.cls-6{fill-rule:evenodd;}.cls-4,.cls-7{stroke:#070836;stroke-linecap:round;stroke-miterlimit:2.6131;}.cls-4{stroke-width:0.9584px;}.cls-5{fill:#fff;}.cls-6{fill:#2478ff;}.cls-7{stroke-width:0.9584px;}</style><clipPath id="clip-path"><rect class="cls-1" x="-129.5766" y="-232" width="459.1531" height="576"/></clipPath></defs><g class="cls-2"><path class="cls-3" d="M68.1906,19.7743a9.9653,9.9653,0,0,0,4.5389.1592c3.1852-.3981,7.5649,1.1149,7.2464,3.1853s-2.6278,4.1406-1.5926,5.2555,3.3444,1.6723,4.0611,4.0612a21.3471,21.3471,0,0,1,.6371,5.5741h3.9017s-.3183-4.0612.7964-6.53,5.7335-2.6278,6.689-2.3889,1.9908,2.8668,2.3889,4.38-.6371,3.0259-1.3537,4.6981,2.27,1.3537,3.1057,2.9463a4.7857,4.7857,0,0,1,.7565,2.3491,17.6427,17.6427,0,0,0,4.5787.5574,9.7509,9.7509,0,0,0,2.8269-.8759,30.2414,30.2414,0,0,1,1.991-6.7687,33.2474,33.2474,0,0,0,2.23-10.67c0-2.23-2.6278-9.3964-3.026-10.352s-2.4684-1.1944-2.4684-1.1944S102.79,9.0677,98.3311,7.3937s-10.1925,0-13.3778,0-3.1056-1.3556-4.6186-2.3112-6.5295-.6332-9.3963,2.3112S66.4,16.31,68.1906,19.7743Z"/><path class="cls-4" d="M68.1906,19.7743a9.9653,9.9653,0,0,0,4.5389.1592c3.1852-.3981,7.5649,1.1149,7.2464,3.1853s-2.6278,4.1406-1.5926,5.2555,3.3444,1.6723,4.0611,4.0612a21.3471,21.3471,0,0,1,.6371,5.5741h3.9017s-.3183-4.0612.7964-6.53,5.7335-2.6278,6.689-2.3889,1.9908,2.8668,2.3889,4.38-.6371,3.0259-1.3537,4.6981,2.27,1.3537,3.1057,2.9463a4.7857,4.7857,0,0,1,.7565,2.3491,17.6427,17.6427,0,0,0,4.5787.5574,9.7509,9.7509,0,0,0,2.8269-.8759,30.2414,30.2414,0,0,1,1.991-6.7687,33.2474,33.2474,0,0,0,2.23-10.67c0-2.23-2.6278-9.3964-3.026-10.352s-2.4684-1.1944-2.4684-1.1944S102.79,9.0677,98.3311,7.3937s-10.1925,0-13.3778,0-3.1056-1.3556-4.6186-2.3112-6.5295-.6332-9.3963,2.3112S66.4,16.31,68.1906,19.7743Z"/><path class="cls-5" d="M68.1906,19.7743a6.8516,6.8516,0,0,0-1.154,3.9416c-.08,2.6278-.3585,5.4946-.3982,6.2908a4.3688,4.3688,0,0,0,.3584,2.2694c.3981.9556.6768.8361.7166,2.07s-.9556,3.3046-1.3537,4.3-1.9907,3.8223-1.9907,4.8973.4379,1.2344,1.5926,1.5927,2.15.1193,2.4685.7962a6.1749,6.1749,0,0,1,0,2.4288c0,.3583.8362.8362,1.075.9158s.8759.3582.8759.3582a1.8232,1.8232,0,0,0-.2388,1.1945c.1194.6371.6769.5175.876.9953s.3184.3584.3582,2.5482.12,1.6722.3982,2.19a4.7986,4.7986,0,0,0,2.0306,1.6723,10.1094,10.1094,0,0,0,3.4638.2787c1.6324-.04,3.9418-.5178,5.4945-.12s3.9816,3.2248,5.2159,5.1758a6.1529,6.1529,0,0,1,.4779,6.0917,8.14,8.14,0,0,1-2.9857,3.9017c-.7165.3983-1.3536,1.4733-2.3093,3.3047S78.3447,83.08,77.0307,85.19s-5.6537,10.5112-6.1315,15.2094a15.6079,15.6079,0,0,0,1.7518,9.3565c.7565,1.1945.4777,3.641.4777,3.641H135.44a19.7652,19.7652,0,0,1-.2388-6.866c.5574-3.5833.7165-10.0335-.3982-13.6167s-2.4685-6.37-2.4685-8.7593.9556-10.1131-2.4685-15.5279a13.0706,13.0706,0,0,0-9.2372-5.8926s-11.43-4.6178-13.8568-19.5887a9.7509,9.7509,0,0,1-2.8269.8759,17.6427,17.6427,0,0,1-4.5787-.5574,4.7857,4.7857,0,0,0-.7565-2.3491c-.8362-1.5926-3.8224-1.274-3.1057-2.9463s1.7518-3.1851,1.3537-4.6981-1.4334-4.1408-2.3889-4.38-5.5742-.08-6.689,2.3889-.7964,6.53-.7964,6.53H83.0815a21.3471,21.3471,0,0,0-.6371-5.5741c-.7167-2.3889-3.0259-2.9463-4.0611-4.0612s1.274-3.1852,1.5926-5.2555-4.0612-3.5834-7.2464-3.1853A9.9653,9.9653,0,0,1,68.1906,19.7743Z"/><path class="cls-4" d="M68.1906,19.7743a6.8516,6.8516,0,0,0-1.154,3.9416c-.08,2.6278-.3585,5.4946-.3982,6.2908a4.3688,4.3688,0,0,0,.3584,2.2694c.3981.9556.6768.8361.7166,2.07s-.9556,3.3046-1.3537,4.3-1.9907,3.8223-1.9907,4.8973.4379,1.2344,1.5926,1.5927,2.15.1193,2.4685.7962a6.1749,6.1749,0,0,1,0,2.4288c0,.3583.8362.8362,1.075.9158s.8759.3582.8759.3582a1.8232,1.8232,0,0,0-.2388,1.1945c.1194.6371.6769.5175.876.9953s.3184.3584.3582,2.5482.12,1.6722.3982,2.19a4.7986,4.7986,0,0,0,2.0306,1.6723,10.1094,10.1094,0,0,0,3.4638.2787c1.6324-.04,3.9418-.5178,5.4945-.12s3.9816,3.2248,5.2159,5.1758a6.1529,6.1529,0,0,1,.4779,6.0917,8.14,8.14,0,0,1-2.9857,3.9017c-.7165.3983-1.3536,1.4733-2.3093,3.3047S78.3447,83.08,77.0307,85.19s-5.6537,10.5112-6.1315,15.2094a15.6079,15.6079,0,0,0,1.7518,9.3565c.7565,1.1945.4777,3.641.4777,3.641H135.44a19.7652,19.7652,0,0,1-.2388-6.866c.5574-3.5833.7165-10.0335-.3982-13.6167s-2.4685-6.37-2.4685-8.7593.9556-10.1131-2.4685-15.5279a13.0706,13.0706,0,0,0-9.2372-5.8926s-11.43-4.6178-13.8568-19.5887a9.7509,9.7509,0,0,1-2.8269.8759,17.6427,17.6427,0,0,1-4.5787-.5574,4.7857,4.7857,0,0,0-.7565-2.3491c-.8362-1.5926-3.8224-1.274-3.1057-2.9463s1.7518-3.1851,1.3537-4.6981-1.4334-4.1408-2.3889-4.38-5.5742-.08-6.689,2.3889-.7964,6.53-.7964,6.53H83.0815a21.3471,21.3471,0,0,0-.6371-5.5741c-.7167-2.3889-3.0259-2.9463-4.0611-4.0612s1.274-3.1852,1.5926-5.2555-4.0612-3.5834-7.2464-3.1853A9.9653,9.9653,0,0,1,68.1906,19.7743Z"/><path class="cls-4" d="M95.5038,38.1688s-1.1922,2.11-1.5506,2.687a3.2876,3.2876,0,0,1-2.21,1.2343c-.9159.12-2.847-.3185-2.6478-.9754"/><path class="cls-4" d="M90.7282,43.2049s.7165,3.2648.438,4.4593c-.8382,3.5937-8.695,9.6285-12.4113,10.7437"/><path class="cls-4" d="M87.9815,73.5834a13.805,13.805,0,0,1,6.0519-3.7427c3.5833-.9554,4.6186-.7165,9.3167-2.7073a33.65,33.65,0,0,0,6.7686-3.5834"/><path class="cls-4" d="M120.6284,62.7344a29.0848,29.0848,0,0,0-6.4487.099"/><path class="cls-4" d="M97.6174,49.535S97.5,63.5519,91.8653,70.6778"/><path class="cls-4" d="M86.1511,75.5738s-7.2463,11.3075-8.8389,19.43.1594,11.7852.9556,12.263"/><path class="cls-4" d="M82.17,108.7s8.0424,1.8316,12.82-3.5037,7.8036-12.4223,8.1221-15.05,1.8317-4.8574,2.4687-5.1759"/><path class="cls-4" d="M108.5275,91.0222a37.1372,37.1372,0,0,0-3.5919,22.3747"/><path class="cls-4" d="M107.51,90.3811s-.5569-5.3354-3.4236-7.6447"/><path class="cls-4" d="M132.3341,84.1549a46.8985,46.8985,0,0,1-6.5256,8.46"/><path class="cls-4" d="M108.5275,91.0222s8.1236,7.3254,9.3977,12.5811"/><path class="cls-4" d="M75.5636,107.0669s-1.6264,2.487-2.2695,2.588-1.1939-.9515-1.1939-.9515"/><path class="cls-4" d="M87.27,109.5356s8.2417,2.23,10.83,2.07a15.99,15.99,0,0,0,5.0564-1.314"/><path class="cls-4" d="M76.3209,110.77s.7962-2.5084,1.3934-2.7473,2.5881.3584,3.5038.7964,1.5129,3.5834,1.5129,3.5834l-.3184.9945"/><path class="cls-4" d="M75.5245,108.1421s.5375-.6172.7565-.4579-.08,1.5926-.1791,2.13-.6172,2.6278-.6768,2.8269a1.7071,1.7071,0,0,1-.3783.4977"/><path class="cls-4" d="M76.1616,111.3073s-.1792,1.2542-.1792,1.4135a4.8055,4.8055,0,0,0,.1393.6761"/><path class="cls-5" d="M92.6258,30.4033a4.3622,4.3622,0,0,0-2.3093,1.4334,5.15,5.15,0,0,0-.637,3.0657s.9954.4381.9954,1.1149-.199.7962-.3982,1.4333a4.124,4.124,0,0,0,.1592,1.712c0,.239.4381-.8361,1.2742-1.1148s1.8713-.08,2.0305-.2786a4.8475,4.8475,0,0,0,1.4334-3.0261C95.174,33.1506,93.94,30.0051,92.6258,30.4033Z"/><path class="cls-6" d="M118.4273,101.5915s-4.9368-8.8388-6.6888-11.0684-3.2649-2.6279-4.0612-4.5391-1.513-5.2555-2.787-6.6887-2.7073-1.7519-3.3444-3.663-.3983-2.7075-1.6723-3.4241-4.5388-.637-3.5037-1.5926,5.9722-1.911,9.237-3.3444,7.9631-4.0611,11.5066-3.8621,10.153,1.2341,12.502,7.2064a26.9626,26.9626,0,0,1,1.3938,12.6213,2.6673,2.6673,0,0,1-.5176,1.9509c-.4379.5973-9.3564,10.6306-10.71,12.86a7.7506,7.7506,0,0,0-1.3542,3.5436"/><path class="cls-7" d="M88.1692,63.6859a5.3351,5.3351,0,0,0,.6907-5.48"/></g></svg>